<?xml version="1.0" encoding="utf-8"?>
<!-- Generator: Adobe Illustrator 24.0.0, SVG Export Plug-In . SVG Version: 6.00 Build 0)  -->
<svg version="1.1" id="_x2014_ÎÓÈ_x5F_1" xmlns="http://www.w3.org/2000/svg" xmlns:xlink="http://www.w3.org/1999/xlink"
	 x="0px" y="0px" viewBox="100 90 100 60" style="enable-background:new 0 0 398.14 398.15;" xml:space="preserve" fill="#e6007a">
<g>
	<path d="M142.45,108.74l-0.63-0.72c-2.63-3.02-8.64-9.9-14.63-12.13l-0.12,0.23c-0.26-0.11-1.12-0.08-3.8,0.69l-0.36,0.1
		c-0.82,0.23-1.62,0.55-2.42,0.95c2.41,1,5.01,2.45,6.64,4.45c0.38,0.47,0.8,1.01,1.27,1.62c2.63,3.4,6.42,8.28,11.42,10.77
		c1.22-0.07,2.39-0.12,3.48-0.15c0.51-0.07,1.01-0.16,1.52-0.21c0.34-0.03,0.69-0.04,1.03-0.06v-0.15c0-0.6,0.2-1.16,0.54-1.61
		C145.2,111.52,143.75,110.2,142.45,108.74z"/>
	<path d="M127.66,125.18c0.46-0.55,0.92-1.11,1.39-1.65c0.67-0.8,1.39-1.52,2.09-2.28c0.38-0.38,0.76-0.72,1.14-1.09
		c0.38-0.36,0.75-0.73,1.18-1.03l1.24-0.96l1.32-0.85c0.43-0.3,0.9-0.53,1.37-0.77c0.47-0.24,0.92-0.49,1.42-0.67
		c0.11-0.05,0.22-0.08,0.33-0.13c-5.51,0.37-11.84,1.26-15.67,3.34c-4.29,2.33-9.12,2.42-12.92,0.25c-0.17-0.09-0.31-0.2-0.47-0.3
		c0.04,0.33,0.15,1.05,0.27,1.24l-0.08,0.08c0.45,0.57,0.97,1.14,1.61,1.67C115.35,124.93,120.67,125.97,127.66,125.18z"/>
	<path d="M117.54,97.87l0.05-0.03c0.17-0.12,0.33-0.21,0.5-0.32c0.18-0.12,0.37-0.24,0.55-0.35c1.27-0.77,2.55-1.34,3.87-1.71
		l0.35-0.1c0.23-0.07,0.42-0.11,0.63-0.17c0.28-0.08,0.58-0.16,0.84-0.23c-0.27-0.09-0.56-0.18-0.86-0.27
		c-0.43-0.13-0.89-0.25-1.38-0.36c-1.26-0.29-2.69-0.5-4.2-0.5c-2.79,0-5.84,0.7-8.61,2.89c-3.14,2.48-4.89,5.85-5.06,9.75
		c-0.15,3.38,0.93,6.92,2.97,10.04c0.33,0.5,0.67,0.99,1.05,1.47l0.15,0.2c-0.1-0.53-0.17-1.06-0.24-1.58
		c-0.06-0.46-0.1-0.91-0.14-1.35c-0.05-0.61-0.08-1.22-0.08-1.82c0-2.48,0.4-4.67,1.19-6.51
		C110.88,102.77,113.98,100.36,117.54,97.87z"/>
	<path d="M145.89,119.27c-0.02-0.15-0.05-0.3-0.05-0.45v-1.57v-0.49v-0.5v-0.74v-0.51v-0.43c-0.33,0.03-0.66,0.06-0.99,0.11
		c-0.5,0.07-1,0.19-1.5,0.28c-0.12,0.03-0.24,0.07-0.37,0.1c-0.37,0.1-0.74,0.2-1.1,0.3l-0.27,0.09c-0.18,0.06-0.36,0.13-0.54,0.19
		l-0.16,0.06c-0.23,0.08-0.45,0.17-0.67,0.26c-0.4,0.16-0.79,0.32-1.18,0.51c-0.47,0.19-0.9,0.46-1.34,0.71
		c-0.44,0.25-0.88,0.49-1.29,0.79l-1.24,0.86l-1.17,0.97c-0.4,0.31-0.75,0.67-1.11,1.03c-0.35,0.36-0.72,0.71-1.06,1.07
		c-0.67,0.78-1.38,1.53-2.01,2.32c-0.21,0.25-0.4,0.51-0.61,0.76c-0.15,0.19-0.3,0.38-0.45,0.57c-0.15,0.19-0.3,0.37-0.45,0.56
		c-0.13,0.17-0.26,0.32-0.39,0.49c-0.63,0.8-1.22,1.64-1.82,2.46l-3.52,5.04c-1.18,1.69-2.35,3.39-3.71,5
		c-0.67,0.81-1.42,1.58-2.27,2.28c-0.1,0.08-0.21,0.15-0.32,0.22c0.29,0.01,0.59,0.03,0.88,0.02c1.21-0.04,2.41-0.2,3.45-0.61
		l0.84-0.33l0.18,0.87c0.28,1.36,0.49,2.7,0.61,4.08c0.05,0.54,0.06,1.08,0.06,1.63c0.58-0.72,1.15-1.46,1.69-2.2
		c1.05-1.43,2.02-2.92,2.89-4.45c0.43-0.77,0.85-1.55,1.22-2.35c0.36-0.78,0.73-1.65,1.18-2.46c0.89-1.61,1.93-3.11,3.03-4.56
		c2.22-2.88,4.72-5.54,7.58-7.79c0.91-0.72,1.88-1.37,2.89-1.95c0.57-0.33,1.16-0.64,1.76-0.91c0.51-0.22,1.04-0.41,1.58-0.57
		c-0.04-0.09-0.08-0.18-0.12-0.27C145.96,119.6,145.92,119.44,145.89,119.27z"/>
	<path d="M154.63,114.28c0.34,0.02,0.69,0.03,1.03,0.06c0.51,0.05,1.01,0.14,1.52,0.21c1.08,0.03,2.26,0.08,3.48,0.15
		c5-2.48,8.78-7.37,11.42-10.77c0.47-0.6,0.89-1.15,1.27-1.62c1.63-2,4.23-3.45,6.64-4.45c-0.8-0.4-1.6-0.72-2.42-0.95l-0.37-0.1
		c-2.67-0.77-3.54-0.8-3.8-0.69l-0.12-0.23c-5.99,2.22-12,9.11-14.64,12.13l-0.63,0.72c-1.3,1.46-2.74,2.78-3.93,3.78
		c0.33,0.45,0.54,1.01,0.54,1.61V114.28z"/>
	<path d="M189.94,119.35c-3.8,2.18-8.63,2.08-12.92-0.25c-3.83-2.08-10.16-2.97-15.67-3.34c0.11,0.04,0.22,0.08,0.33,0.13
		c0.49,0.18,0.95,0.43,1.42,0.67c0.47,0.23,0.94,0.47,1.37,0.77l1.32,0.85l1.24,0.96c0.43,0.31,0.8,0.67,1.18,1.03
		c0.38,0.36,0.76,0.71,1.14,1.09c0.69,0.76,1.42,1.48,2.09,2.28c0.48,0.54,0.94,1.1,1.4,1.65c6.96,0.78,12.3-0.26,15.8-3.16
		c0.65-0.54,1.18-1.12,1.64-1.7l-0.08-0.08c0.09-0.15,0.19-0.87,0.23-1.2C190.26,119.15,190.11,119.25,189.94,119.35z"/>
	<path d="M191.21,96.71c-4.27-3.37-9.22-3.22-12.82-2.39c-0.49,0.11-0.94,0.24-1.38,0.37c-0.3,0.09-0.59,0.18-0.86,0.27
		c0.26,0.06,0.56,0.15,0.84,0.23c0.21,0.06,0.41,0.11,0.63,0.17l0.35,0.1c1.32,0.37,2.59,0.93,3.87,1.71
		c0.18,0.11,0.37,0.23,0.55,0.35c0.17,0.11,0.33,0.21,0.5,0.32l0.05,0.03c3.56,2.49,6.66,4.9,8.43,9.04
		c0.79,1.83,1.19,4.02,1.19,6.51c0,0.59-0.03,1.2-0.08,1.82c-0.03,0.45-0.08,0.9-0.14,1.35c-0.07,0.52-0.14,1.05-0.24,1.59l0.15-0.2
		c0.38-0.48,0.72-0.97,1.05-1.47c2.03-3.12,3.12-6.65,2.97-10.04C196.1,102.56,194.35,99.19,191.21,96.71z"/>
	<path d="M181.58,139.12c-1.35-1.61-2.53-3.31-3.71-5l-3.52-5.04c-0.61-0.82-1.19-1.66-1.82-2.46c-0.12-0.17-0.26-0.32-0.39-0.48
		c-0.15-0.19-0.3-0.38-0.46-0.57c-0.15-0.19-0.29-0.37-0.44-0.56c-0.21-0.26-0.4-0.52-0.61-0.77c-0.63-0.79-1.34-1.55-2.01-2.32
		c-0.34-0.36-0.71-0.71-1.06-1.07c-0.36-0.36-0.71-0.72-1.11-1.03l-1.17-0.97l-1.24-0.86c-0.41-0.3-0.85-0.54-1.29-0.79
		c-0.44-0.25-0.87-0.51-1.34-0.71c-0.38-0.19-0.78-0.35-1.18-0.52c-0.22-0.09-0.45-0.17-0.67-0.26l-0.16-0.06
		c-0.18-0.06-0.36-0.13-0.54-0.19c-0.09-0.03-0.18-0.07-0.27-0.1c-0.37-0.1-0.74-0.2-1.1-0.3c-0.12-0.03-0.24-0.07-0.37-0.1
		c-0.5-0.09-1-0.21-1.5-0.28c-0.33-0.04-0.66-0.07-0.99-0.11v0.43v0.51v0.74v0.5v0.49v1.57c0,0.15-0.02,0.3-0.05,0.45
		c-0.03,0.17-0.07,0.33-0.13,0.49c-0.03,0.09-0.07,0.18-0.12,0.27c0.54,0.16,1.07,0.35,1.58,0.57c0.6,0.27,1.19,0.58,1.76,0.91
		c1.01,0.58,1.98,1.23,2.89,1.95c2.86,2.25,5.36,4.92,7.58,7.79c1.1,1.45,2.14,2.95,3.03,4.56c0.45,0.81,0.82,1.68,1.18,2.46
		c0.37,0.8,0.78,1.58,1.22,2.35c0.87,1.54,1.85,3.02,2.89,4.45c0.54,0.75,1.11,1.48,1.69,2.2c0-0.55,0.02-1.1,0.06-1.63
		c0.12-1.38,0.33-2.72,0.61-4.08l0.18-0.87l0.84,0.33c1.04,0.41,2.24,0.57,3.45,0.61c0.29,0.01,0.58-0.01,0.88-0.02
		c-0.11-0.07-0.22-0.15-0.32-0.22C183.01,140.7,182.26,139.93,181.58,139.12z"/>
	<path d="M152.56,113.13c-0.17-0.11-0.35-0.18-0.56-0.2l-0.11-0.02h-3.32l-0.11,0.02c-0.21,0.02-0.39,0.09-0.56,0.2
		c-0.14,0.1-0.26,0.22-0.35,0.36c-0.12,0.19-0.21,0.4-0.21,0.64v0.13v0.09v0.13v0.02v0.51v0.51v0.7v0.5v0.5v1.14v0.45
		c0,0.11,0.04,0.21,0.06,0.31c0.04,0.17,0.12,0.32,0.22,0.45l0.08,0.11l0.25,0.17c0.13,0.08,0.28,0.13,0.43,0.15l0.18,0.04h3.32
		l0.18-0.04c0.16-0.02,0.3-0.07,0.43-0.15l0.25-0.17l0.08-0.11c0.11-0.13,0.18-0.28,0.22-0.45c0.03-0.1,0.06-0.2,0.06-0.31v-0.45
		v-1.14v-0.5v-0.5v-0.7v-0.51v-0.51v-0.02v-0.13v-0.09v-0.13c0-0.24-0.09-0.45-0.21-0.64C152.82,113.34,152.7,113.22,152.56,113.13z
		"/>
</g>
</svg>
