<svg width="144" height="144" viewBox="0 0 144 144" fill="none" xmlns="http://www.w3.org/2000/svg">
<path d="M19 64.8042L18.7404 63.9948C18.4358 64.0925 18.2118 64.3529 18.1609 64.6687C18.1099 64.9845 18.2405 65.3022 18.499 65.4908L19 64.8042ZM35.8372 59.4036L36.6539 59.168C36.5902 58.9472 36.4398 58.7616 36.237 58.6535C36.0343 58.5454 35.7964 58.524 35.5776 58.5942L35.8372 59.4036ZM30.7543 73.3816L30.2532 74.0682C30.3399 74.1315 30.4379 74.1778 30.5419 74.2046L30.7543 73.3816ZM46.003 82.5944L45.3423 83.1292C45.6344 83.49 46.162 83.5498 46.5274 83.2634L46.003 82.5944ZM57.7573 73.3816L58.2816 74.0506C58.5851 73.8127 58.6905 73.4003 58.5382 73.046C58.3859 72.6916 58.0142 72.4843 57.6327 72.5408L57.7573 73.3816ZM19.2596 65.6135L36.0968 60.2129L35.5776 58.5942L18.7404 63.9948L19.2596 65.6135ZM35.0383 59.1131L29.9554 73.0911L31.5531 73.6721L36.636 59.694L35.0383 59.1131ZM31.2553 72.695L19.501 64.1175L18.499 65.4908L30.2532 74.0682L31.2553 72.695ZM30.5419 74.2046L40.39 76.7461L40.8148 75.1L30.9666 72.5586L30.5419 74.2046ZM39.9417 76.4579L45.3423 83.1292L46.6637 82.0596L41.2631 75.3882L39.9417 76.4579ZM46.5274 83.2634L58.2816 74.0506L57.2329 72.7126L45.4787 81.9254L46.5274 83.2634ZM57.6327 72.5408L40.4778 75.0822L40.727 76.7639L57.8818 74.2224L57.6327 72.5408ZM41.4191 75.6875L36.6539 59.168L35.0205 59.6392L39.7857 76.1586L41.4191 75.6875Z" fill="#E6007A"/>
<path d="M35.8372 59.7213L35.457 58.961C35.1328 59.1231 34.947 59.4731 34.9945 59.8325C35.0419 60.1919 35.312 60.4816 35.6672 60.5541L35.8372 59.7213ZM47.9091 53.6853L47.6328 52.8815C47.5972 52.8937 47.5626 52.9083 47.529 52.9251L47.9091 53.6853ZM58.0749 73.3816L57.3578 73.838C57.4901 74.0459 57.7061 74.1861 57.9498 74.2224C58.1935 74.2586 58.441 74.1874 58.6281 74.027L58.0749 73.3816ZM76.8182 59.7213L77.2624 60.446C77.2885 60.43 77.3137 60.4126 77.3379 60.3939L76.8182 59.7213ZM70.1469 45.7433L69.9026 44.9291C69.8859 44.9341 69.8694 44.9396 69.853 44.9457L70.1469 45.7433ZM83.8072 54.3207L84.3269 54.9933C84.3392 54.9838 84.3511 54.9741 84.3628 54.964L83.8072 54.3207ZM88.8901 38.4366L88.6382 37.6248C88.5979 37.6373 88.5586 37.6528 88.5206 37.6711L88.8901 38.4366ZM96.8322 44.7902L97.2581 45.5258C97.301 45.501 97.3417 45.4724 97.3797 45.4404L96.8322 44.7902ZM106.68 31.4476L106.455 30.6279C106.406 30.6414 106.358 30.6595 106.312 30.6817L106.68 31.4476ZM122.882 27L123.329 27.7232C123.688 27.501 123.83 27.0483 123.661 26.6607C123.493 26.2731 123.065 26.0684 122.657 26.1803L122.882 27ZM41.2567 76.4657L52.0579 63.4407L50.7493 62.3555L39.9481 75.3805L41.2567 76.4657ZM51.5736 62.0653L36.0071 58.8885L35.6672 60.5541L51.2336 63.731L51.5736 62.0653ZM36.2173 60.4816L48.2892 54.4456L47.529 52.9251L35.457 58.961L36.2173 60.4816ZM47.1143 53.9868L50.6088 63.1996L52.1983 62.5967L48.7038 53.3839L47.1143 53.9868ZM50.6865 63.3545L57.3578 73.838L58.792 72.9253L52.1207 62.4418L50.6865 63.3545ZM58.6281 74.027L67.5232 66.4026L66.4169 65.1119L57.5218 72.7363L58.6281 74.027ZM67.1236 64.9212L51.5572 62.0621L51.25 63.7341L66.8165 66.5933L67.1236 64.9212ZM52.1562 63.2932L58.8275 50.5859L57.3223 49.7957L50.651 62.503L52.1562 63.2932ZM57.7986 49.387L47.6328 52.8815L48.1854 54.4892L58.3512 50.9947L57.7986 49.387ZM57.3369 50.6125L66.232 66.179L67.708 65.3355L58.8129 49.7691L57.3369 50.6125ZM67.4142 66.482L77.2624 60.446L76.374 58.9966L66.5259 65.0325L67.4142 66.482ZM77.2035 58.9636L58.4602 49.4331L57.6897 50.9485L76.4329 60.479L77.2035 58.9636ZM58.3688 50.9884L70.4407 46.5409L69.853 44.9457L57.7811 49.3932L58.3688 50.9884ZM69.3798 46.1094L76.0511 60.0874L77.5853 59.3552L70.914 45.3771L69.3798 46.1094ZM77.3379 60.3939L84.3269 54.9933L83.2875 53.6481L76.2985 59.0487L77.3379 60.3939ZM84.2592 53.6008L70.5989 45.0234L69.6949 46.4631L83.3552 55.0405L84.2592 53.6008ZM70.3911 46.5574L79.9216 43.6983L79.4331 42.07L69.9026 44.9291L70.3911 46.5574ZM78.8779 43.1728L83.0077 54.6094L84.6067 54.032L80.4768 42.5954L78.8779 43.1728ZM84.3628 54.964L91.3518 48.928L90.2406 47.6414L83.2516 53.6774L84.3628 54.964ZM91.1676 47.5201L80.0487 42.1195L79.306 43.6487L90.4249 49.0493L91.1676 47.5201ZM80.0469 43.6496L89.2597 39.202L88.5206 37.6711L79.3078 42.1187L80.0469 43.6496ZM88.0556 38.5981L89.9617 48.4462L91.6307 48.1232L89.7246 38.275L88.0556 38.5981ZM91.2221 49.0203L97.2581 45.5258L96.4063 44.0546L90.3703 47.5491L91.2221 49.0203ZM97.3632 44.1265L89.4211 37.7728L88.3591 39.1003L96.3012 45.454L97.3632 44.1265ZM89.1421 39.2484L98.3549 36.3892L97.851 34.7656L88.6382 37.6248L89.1421 39.2484ZM97.2609 35.4613L95.9902 44.6741L97.6742 44.9064L98.9449 35.6936L97.2609 35.4613ZM97.3797 45.4404L103.416 40.3575L102.321 39.0571L96.2847 44.14L97.3797 45.4404ZM103.425 39.065L98.6596 34.9351L97.5462 36.2198L102.311 40.3496L103.425 39.065ZM98.4717 36.3433L107.049 32.2134L106.312 30.6817L97.7342 34.8116L98.4717 36.3433ZM105.909 31.0914L102.096 39.3511L103.64 40.0635L107.452 31.8038L105.909 31.0914ZM103.334 40.4183L112.547 34.3823L111.615 32.9603L102.402 38.9963L103.334 40.4183ZM112.405 32.8854L107.004 30.6616L106.357 32.2335L111.757 34.4573L112.405 32.8854ZM106.905 32.2672L123.107 27.8197L122.657 26.1803L106.455 30.6279L106.905 32.2672ZM122.435 26.2768L111.634 32.9482L112.528 34.3945L123.329 27.7232L122.435 26.2768Z" fill="#E6007A"/>
<path d="M64.1109 92.1249L63.4923 91.5419C63.3188 91.726 63.2363 91.9778 63.2673 92.229C63.2982 92.4801 63.4395 92.7043 63.6525 92.8408L64.1109 92.1249ZM100.017 75.6342L100.68 76.1665C100.692 76.1507 100.704 76.1345 100.716 76.1178L100.017 75.6342ZM87.5046 66.5055L86.9028 65.9053C86.8905 65.9176 86.8785 65.9303 86.867 65.9434L87.5046 66.5055ZM105.092 68.2987L105.791 68.7823C105.859 68.6849 105.905 68.5744 105.927 68.4581L105.092 68.2987ZM100.524 51.1697L99.9167 50.5751C99.8872 50.6053 99.86 50.6376 99.8352 50.6718L100.524 51.1697ZM110.531 52.986L111.256 53.4308C111.282 53.3885 111.304 53.344 111.322 53.2979L110.531 52.986ZM112.856 36.5662L112.279 35.9417C112.238 35.9799 112.201 36.022 112.168 36.0676L112.856 36.5662ZM118.665 35.9565L119.412 36.3607C119.416 36.3543 119.419 36.3479 119.423 36.3415L118.665 35.9565ZM123.215 27L124.054 26.8619C124.003 26.5534 123.787 26.2977 123.491 26.1961C123.195 26.0945 122.868 26.1634 122.638 26.3755L123.215 27ZM98.1029 117.857L97.5243 118.48C97.7282 118.669 98.0119 118.747 98.2839 118.688C98.5558 118.628 98.7815 118.44 98.8881 118.183L98.1029 117.857ZM103.504 104.832L104.289 105.158C104.293 105.147 104.297 105.136 104.302 105.125L103.504 104.832ZM106.881 95.6194L107.679 95.912C107.692 95.876 107.703 95.8392 107.711 95.8017L106.881 95.6194ZM108.904 86.4066L108.132 86.0504C108.107 86.1061 108.087 86.1644 108.074 86.2243L108.904 86.4066ZM112.716 78.1469L113.488 78.5031C113.516 78.4425 113.537 78.3789 113.55 78.3136L112.716 78.1469ZM114.305 70.2048L113.492 69.9548C113.484 69.9822 113.477 70.01 113.471 70.0381L114.305 70.2048ZM116.846 61.9451L117.659 62.195C117.669 62.1608 117.677 62.126 117.684 62.0907L116.846 61.9451ZM118.117 54.6384L117.332 54.3115C117.308 54.3697 117.29 54.4305 117.279 54.4927L118.117 54.6384ZM121.294 47.014L122.078 47.3409C122.121 47.2373 122.144 47.1262 122.144 47.014H121.294ZM121.294 40.3427L120.551 39.9299C120.481 40.0561 120.444 40.1982 120.444 40.3427H121.294ZM124.471 34.6244L125.214 35.0372C125.307 34.8696 125.34 34.6754 125.309 34.4863L124.471 34.6244ZM50.1329 93.0779L50.9489 92.8399C50.9429 92.8196 50.9362 92.7994 50.9287 92.7795L50.1329 93.0779ZM52.3567 100.702L51.5407 100.94C51.5447 100.954 51.5491 100.968 51.5538 100.982L52.3567 100.702ZM57.1219 114.363L56.3197 114.643C56.4113 114.905 56.6248 115.106 56.8918 115.181C57.1587 115.256 57.4456 115.196 57.6602 115.02L57.1219 114.363ZM64.1109 108.644L63.6047 107.962C63.5938 107.97 63.5831 107.978 63.5726 107.987L64.1109 108.644ZM69.5116 104.514L68.9949 103.84C68.9419 103.88 68.8939 103.927 68.8519 103.978L69.5116 104.514ZM69.2534 104.832L69.7596 105.515C69.8167 105.473 69.8683 105.423 69.9131 105.368L69.2534 104.832ZM54.8981 108.009L54.0953 108.288L54.0959 108.29L54.8981 108.009ZM79.8462 101.668L80.0148 90.5194L78.315 90.4937L78.1464 101.642L79.8462 101.668ZM79.0741 89.6614L64.02 91.2798L64.2017 92.97L79.2558 91.3517L79.0741 89.6614ZM64.7294 92.708L72.3308 84.6441L71.0937 83.478L63.4923 91.5419L64.7294 92.708ZM71.1562 84.704L78.6089 91.1495L79.721 89.8636L72.2683 83.4181L71.1562 84.704ZM78.7508 91.2489L89.6026 97.3028L90.4308 95.8182L79.5791 89.7643L78.7508 91.2489ZM90.849 96.733L93.2171 85.3084L91.5525 84.9633L89.1844 96.388L90.849 96.733ZM92.0649 84.3483L78.845 89.7191L79.4849 91.2941L92.7048 85.9233L92.0649 84.3483ZM80.0149 90.4966L79.8462 76.1455L78.1464 76.1655L78.315 90.5165L80.0149 90.4966ZM78.3712 75.5795L71.0871 83.4851L72.3374 84.637L79.6214 76.7314L78.3712 75.5795ZM78.5228 76.8614L91.9113 85.8417L92.8583 84.4299L79.4698 75.4496L78.5228 76.8614ZM93.0475 85.6681L100.68 76.1665L99.3543 75.1019L91.7221 84.6035L93.0475 85.6681ZM99.9959 74.7845L78.9752 75.3057L79.0174 77.0052L100.038 76.4839L99.9959 74.7845ZM79.6339 76.7176L88.1422 67.0677L86.867 65.9434L78.3587 75.5933L79.6339 76.7176ZM87.0036 67.1922L99.516 76.3209L100.518 74.9475L88.0056 65.8189L87.0036 67.1922ZM100.716 76.1178L105.791 68.7823L104.393 67.815L99.3179 75.1506L100.716 76.1178ZM105.178 67.453L87.5908 65.6599L87.4184 67.3512L105.006 69.1443L105.178 67.453ZM88.1064 67.1058L95.1333 60.0612L93.9297 58.8606L86.9028 65.9053L88.1064 67.1058ZM93.986 60.1128L104.547 68.9505L105.638 67.6468L95.0771 58.8091L93.986 60.1128ZM105.927 68.4581L107.716 59.0884L106.046 58.7696L104.257 68.1392L105.927 68.4581ZM106.845 58.0798L94.495 58.6117L94.5681 60.3101L106.918 59.7782L106.845 58.0798ZM95.2204 59.9588L101.213 51.6676L99.8352 50.6718L93.8426 58.963L95.2204 59.9588ZM99.8666 51.7083L106.224 59.4677L107.539 58.3903L101.182 50.631L99.8666 51.7083ZM107.605 59.3739L111.256 53.4308L109.807 52.5411L106.157 58.4842L107.605 59.3739ZM110.683 52.1496L100.676 50.3333L100.372 52.006L110.38 53.8223L110.683 52.1496ZM101.132 51.7642L107.879 44.8706L106.664 43.6814L99.9167 50.5751L101.132 51.7642ZM106.475 44.574L109.735 53.2839L111.328 52.688L108.068 43.9781L106.475 44.574ZM111.322 53.2979L114.218 45.9572L112.636 45.3334L109.741 52.6741L111.322 53.2979ZM113.611 44.8156L107.456 43.4463L107.087 45.1057L113.242 46.475L113.611 44.8156ZM107.96 44.7746L113.544 37.0648L112.168 36.0676L106.583 43.7774L107.96 44.7746ZM112.008 36.6195L112.579 45.6987L114.275 45.592L113.704 36.5129L112.008 36.6195ZM114.175 46.0495L119.412 36.3607L117.917 35.5522L112.679 45.2411L114.175 46.0495ZM118.576 35.1111L112.767 35.7208L112.945 37.4116L118.753 36.8018L118.576 35.1111ZM113.433 37.1907L123.792 27.6245L122.638 26.3755L112.279 35.9417L113.433 37.1907ZM122.457 26.615L117.907 35.5715L119.423 36.3415L123.973 27.385L122.457 26.615ZM79.353 102.427L90.3734 97.332L89.66 95.789L78.6396 100.884L79.353 102.427ZM78.4877 102.336L86.996 108.69L88.0132 107.328L79.5049 100.974L78.4877 102.336ZM86.926 108.632L97.5243 118.48L98.6815 117.235L88.0832 107.386L86.926 108.632ZM98.8881 118.183L104.289 105.158L102.718 104.507L97.3178 117.532L98.8881 118.183ZM103.338 103.998L87.339 107.175L87.6701 108.843L103.669 105.666L103.338 103.998ZM88.3348 108.191L90.8469 96.7427L89.1864 96.3783L86.6743 107.827L88.3348 108.191ZM103.948 104.108L90.4611 95.8359L89.5723 97.2851L103.059 105.557L103.948 104.108ZM90.064 97.4092L106.929 96.4681L106.834 94.7707L89.9693 95.7118L90.064 97.4092ZM106.083 95.3268L102.705 104.54L104.302 105.125L107.679 95.912L106.083 95.3268ZM91.8867 85.8246L106.383 96.3082L107.379 94.9306L92.8829 84.4471L91.8867 85.8246ZM107.711 95.8017L109.734 86.5889L108.074 86.2243L106.051 95.4371L107.711 95.8017ZM109.676 86.7628L113.488 78.5031L111.945 77.7907L108.132 86.0504L109.676 86.7628ZM113.55 78.3136L115.138 70.3715L113.471 70.0381L111.883 77.9802L113.55 78.3136ZM115.117 70.4548L117.659 62.195L116.034 61.6951L113.492 69.9548L115.117 70.4548ZM117.684 62.0907L118.954 54.784L117.279 54.4927L116.009 61.7994L117.684 62.0907ZM118.902 54.9653L122.078 47.3409L120.509 46.6871L117.332 54.3115L118.902 54.9653ZM122.144 47.014V40.3427H120.444V47.014H122.144ZM122.037 40.7555L125.214 35.0372L123.727 34.2116L120.551 39.9299L122.037 40.7555ZM125.309 34.4863L124.054 26.8619L122.376 27.1381L123.632 34.7625L125.309 34.4863ZM49.3169 93.316L51.5407 100.94L53.1727 100.464L50.9489 92.8399L49.3169 93.316ZM57.6602 115.02L64.6491 109.302L63.5726 107.987L56.5837 113.705L57.6602 115.02ZM63.6525 92.8408L75.4069 100.366L76.3235 98.9348L64.5692 91.4091L63.6525 92.8408ZM75.4069 100.366L78.538 102.371L79.4546 100.939L76.3235 98.9348L75.4069 100.366ZM70.0282 105.189L76.3819 100.326L75.3485 98.9757L68.9949 103.84L70.0282 105.189ZM64.6171 109.327L69.7596 105.515L68.7472 104.149L63.6047 107.962L64.6171 109.327ZM69.9131 105.368L70.1713 105.05L68.8519 103.978L68.5937 104.296L69.9131 105.368ZM51.5538 100.982L54.0953 108.288L55.701 107.73L53.1595 100.423L51.5538 100.982ZM54.0959 108.29L56.3197 114.643L57.9242 114.082L55.7004 107.728L54.0959 108.29ZM45.5248 83.2106L49.337 93.3764L50.9287 92.7795L47.1165 82.6137L45.5248 83.2106Z" fill="#E6007A"/>
<path d="M108.586 86.4066L108.517 87.2537C108.86 87.2817 109.186 87.1006 109.343 86.7948C109.5 86.489 109.457 86.1187 109.235 85.8566L108.586 86.4066ZM99.6913 75.923L99.8503 75.0881C99.4964 75.0206 99.1384 75.1837 98.9569 75.495C98.7755 75.8063 98.81 76.1982 99.0432 76.473L99.6913 75.923ZM113.034 78.4645L112.875 79.2995C113.228 79.3667 113.585 79.2046 113.767 78.8946C113.949 78.5846 113.916 78.1937 113.685 77.9183L113.034 78.4645ZM104.774 68.6163V67.7663C104.444 67.7663 104.144 67.9577 104.004 68.257C103.864 68.5564 103.911 68.9095 104.123 69.1626L104.774 68.6163ZM114.305 68.6163V69.4663C114.631 69.4663 114.928 69.2798 115.07 68.9862C115.212 68.6926 115.173 68.3437 114.971 68.0882L114.305 68.6163ZM106.998 59.4036L107.16 58.569C106.81 58.5015 106.456 58.6584 106.271 58.9624C106.087 59.2663 106.111 59.6531 106.332 59.9317L106.998 59.4036ZM116.846 61.3096L116.685 62.1442C117.037 62.2125 117.395 62.0514 117.578 61.742C117.761 61.4326 117.729 61.0416 117.499 60.7655L116.846 61.3096ZM110.492 53.6853L110.632 52.8468C110.282 52.7884 109.932 52.9542 109.755 53.2625C109.578 53.5707 109.612 53.9564 109.84 54.2294L110.492 53.6853ZM118.117 54.956L117.977 55.7944C118.301 55.8484 118.627 55.7111 118.814 55.4418C119.002 55.1725 119.018 54.8192 118.855 54.5343L118.117 54.956ZM113.034 46.0609L112.55 45.362C112.188 45.6131 112.077 46.0997 112.296 46.4826L113.034 46.0609ZM121.294 40.3426L121.778 41.0415C122.11 40.8114 122.234 40.3792 122.075 40.0078L121.294 40.3426ZM119.388 35.8951L119.119 35.0887C118.893 35.1638 118.71 35.33 118.612 35.5468C118.515 35.7637 118.513 36.0114 118.606 36.2299L119.388 35.8951ZM92.9508 85.983L108.517 87.2537L108.656 85.5594L93.0891 84.2887L92.9508 85.983ZM109.235 85.8566L100.339 75.3731L99.0432 76.473L107.938 86.9565L109.235 85.8566ZM99.5322 76.758L112.875 79.2995L113.193 77.6295L99.8503 75.0881L99.5322 76.758ZM113.685 77.9183L105.425 68.0701L104.123 69.1626L112.383 79.0107L113.685 77.9183ZM104.774 69.4663H114.305V67.7663H104.774V69.4663ZM114.971 68.0882L107.664 58.8754L106.332 59.9317L113.639 69.1445L114.971 68.0882ZM106.836 60.2381L116.685 62.1442L117.008 60.4751L107.16 58.569L106.836 60.2381ZM117.499 60.7655L111.145 53.1411L109.84 54.2294L116.193 61.8538L117.499 60.7655ZM110.353 54.5237L117.977 55.7944L118.257 54.1176L110.632 52.8468L110.353 54.5237ZM118.855 54.5343L113.772 45.6392L112.296 46.4826L117.379 55.3777L118.855 54.5343ZM112.873 46.8956L121.133 48.484L121.454 46.8146L113.194 45.2262L112.873 46.8956ZM120.81 39.6437L112.55 45.362L113.518 46.7598L121.778 41.0415L120.81 39.6437ZM122.075 40.0078L120.169 35.5602L118.606 36.2299L120.512 40.6774L122.075 40.0078ZM119.656 36.7014L124.422 35.113L123.884 33.5003L119.119 35.0887L119.656 36.7014Z" fill="#E6007A"/>
<path d="M64.4286 92.7601L65.235 93.0289C65.2563 92.965 65.2699 92.8987 65.2756 92.8316L64.4286 92.7601ZM66.6524 66.3925L67.1731 65.7206C66.9268 65.5298 66.596 65.489 66.3107 65.6142C66.0255 65.7394 65.8316 66.0106 65.8054 66.3211L66.6524 66.3925ZM79.3597 76.2407L78.839 76.9125C79.0747 77.0951 79.3888 77.141 79.6668 77.0332C79.9448 76.9255 80.146 76.68 80.1971 76.3863L79.3597 76.2407ZM83.1719 54.3206L83.5017 53.5372C83.2631 53.4367 82.9916 53.4505 82.7643 53.5746C82.5371 53.6988 82.3788 53.9198 82.3344 54.1749L83.1719 54.3206ZM95.2438 59.4035L94.914 60.1869C95.1611 60.2909 95.4429 60.2723 95.6741 60.1365C95.9054 60.0008 96.059 59.7639 96.0886 59.4974L95.2438 59.4035ZM96.8322 45.1078L96.7808 44.2593C96.368 44.2844 96.0331 44.6029 95.9874 45.0139L96.8322 45.1078ZM63.6222 92.4913L56.6332 113.458L58.246 113.996L65.235 93.0289L63.6222 92.4913ZM45.6024 83.6616L64.0279 93.5098L64.8293 92.0105L46.4037 82.1623L45.6024 83.6616ZM65.8054 66.3211L63.5816 92.6887L65.2756 92.8316L67.4994 66.4639L65.8054 66.3211ZM66.1317 67.0644L78.839 76.9125L79.8804 75.5688L67.1731 65.7206L66.1317 67.0644ZM80.1971 76.3863L84.0093 54.4662L82.3344 54.1749L78.5223 76.095L80.1971 76.3863ZM82.842 55.104L94.914 60.1869L95.5737 58.6201L83.5017 53.5372L82.842 55.104ZM96.0886 59.4974L97.677 45.2016L95.9874 45.0139L94.399 59.3096L96.0886 59.4974ZM96.8836 45.9562L107.367 45.3209L107.264 43.624L96.7808 44.2593L96.8836 45.9562Z" fill="#E6007A"/>
</svg>
