<svg width="144" height="144" viewBox="0 0 144 144" fill="none" xmlns="http://www.w3.org/2000/svg">
<path d="M120.762 25.4355L23.8077 62.2313C16.8505 64.8717 15.921 74.3344 22.2316 78.278L36.8206 87.395L123.468 30.7514C126.473 28.7874 124.118 24.162 120.762 25.4355Z" fill="#E6007A"/>
<path d="M55.9258 98.4181L119.306 26.567C122.155 23.3366 127.397 26.2741 126.128 30.3907L101.361 110.785C99.2255 117.717 91.0818 120.721 84.9563 116.835L55.9258 98.4181Z" fill="#E6007A"/>
<path d="M50.0791 110.118L56.6776 98.6118L66.4418 104.807L54.5111 113.988C51.9115 115.988 48.4472 112.963 50.0791 110.118Z" fill="#8D0C50"/>
<path d="M36.9971 87.1809L121.826 25L56.4632 98.8869L55.1969 111.377C54.778 115.51 49.1176 116.345 47.5236 112.509L36.9971 87.1809Z" fill="#BA0665"/>
</svg>
