<svg width="144" height="144" viewBox="0 0 144 144" fill="none" xmlns="http://www.w3.org/2000/svg">
<path d="M110.577 52.6216L111.785 41.3513M110.577 54.2316L116.615 65.0993M100.917 64.2943L90.049 52.6216" stroke="#E6007A" stroke-width="2" stroke-linejoin="round"/>
<path d="M44.5656 65.5018L46.5781 83.2122L61.8734 79.5896M44.5656 122.658V104.948M50.6032 41.3513L46.5781 63.4893" stroke="#E6007A" stroke-width="2" stroke-linejoin="round"/>
<path d="M83.6089 41.7537L90.049 52.6214" stroke="#E6007A" stroke-width="2" stroke-linejoin="round"/>
<path d="M126.275 53.8289L110.979 53.0239" stroke="#E6007A" stroke-width="2" stroke-linejoin="round"/>
<path d="M30.0752 86.4322L28.0626 123.061L63.0809 122.658L83.2063 123.866L104.137 125.073M30.0752 86.4322L26.8551 64.6968H117.42L119.432 101.325M30.0752 86.4322L46.578 83.6147M119.432 101.325L117.42 123.463L104.137 125.073M119.432 101.325L102.929 107.765L104.137 125.073" stroke="#E6007A" stroke-width="2"/>
<path d="M19.2075 39.7412L37.7229 41.3512L98.9042 40.5462L126.275 41.3512V64.6967L100.917 65.5018H45.3706L18.4025 64.6967L19.2075 39.7412Z" stroke="#E6007A" stroke-width="2"/>
<path d="M63.0809 40.5461L82.8038 41.3512L83.2063 65.0992L84.0113 94.4823L82.8038 123.463L62.6784 122.658L63.4834 94.4823L61.8734 65.5017L63.0809 40.5461Z" fill="#121212" stroke="#E6007A" stroke-width="2"/>
<path d="M28.4652 65.0994L34.5029 75.9671M46.5781 83.6148L62.2759 65.0994M46.5781 83.6148L44.5656 104.948M46.5781 83.6148L36.9179 97.3M46.5781 83.6148L34.5029 75.9671M44.5656 104.948L28.4652 123.061L36.9179 97.3M44.5656 104.948L63.081 94.4825M44.5656 104.948L36.9179 97.3M36.9179 97.3L30.8803 86.4323L34.5029 75.9671M34.5029 75.9671L44.5656 65.9044" stroke="#E6007A" stroke-width="2" stroke-linejoin="round"/>
<path d="M117.017 123.463L103.734 108.57M103.734 108.57L83.2064 123.463M103.734 108.57L98.0992 93.2748M103.734 108.57L109.369 87.2371M97.2942 76.3694L117.017 65.5017L109.369 87.2371M97.2942 76.3694L84.0114 94.0798L98.0992 93.2748M97.2942 76.3694L98.0992 93.2748M97.2942 76.3694L109.369 87.2371M98.0992 93.2748L109.369 87.2371M109.369 87.2371L119.432 100.922" stroke="#E6007A" stroke-width="2" stroke-linejoin="round"/>
<path d="M46.1756 83.6148L52.2132 90.8599M63.4835 94.08L52.2132 90.8599M52.2132 90.8599L44.9681 104.545M52.2132 90.8599L61.8734 79.9922" stroke="#E6007A" stroke-width="2" stroke-linejoin="round"/>
<path d="M83.6089 94.0799L91.2566 104.948M91.2566 104.948L103.332 108.57L117.822 111.388M91.2566 104.948L98.0992 94.0799M91.2566 104.948L83.6089 123.061M110.577 87.6398L118.627 84.8222M83.6089 77.9796L96.8917 76.3696L100.514 64.6968" stroke="#E6007A" stroke-width="2" stroke-linejoin="round"/>
<path d="M55.4333 112.595L62.2759 122.255M55.4333 112.595L62.6785 95.2874M55.4333 112.595L44.5656 122.255M55.4333 112.595L44.9681 104.948" stroke="#E6007A" stroke-width="2" stroke-linejoin="round"/>
<path d="M96.8917 76.3694L82.8039 65.0991" stroke="#E6007A" stroke-width="2" stroke-linejoin="round"/>
<path d="M18 64.6968L32.0878 51.0115M32.0878 51.0115L19.2075 40.1438M32.0878 51.0115V64.6968" stroke="#E6007A" stroke-width="2" stroke-linejoin="round"/>
<path d="M126.677 41.3513L110.174 53.024L126.677 64.6968" stroke="#E6007A" stroke-width="2" stroke-linejoin="round"/>
<path d="M45.7731 64.6968L38.1254 41.3513L32.4903 51.414L45.7731 64.6968ZM45.7731 64.6968L62.6785 41.3513" stroke="#E6007A" stroke-width="2" stroke-linejoin="round"/>
<path d="M98.9042 41.3513L101.319 64.6968L110.174 53.024L98.9042 41.3513ZM98.9042 41.3513L90.049 53.024L83.6089 64.6968" stroke="#E6007A" stroke-width="2" stroke-linejoin="round"/>
<path d="M39.3329 31.3529L44.1011 41.3512L66.7035 40.1437L39.3329 31.3529ZM39.3329 31.3529L41.9338 19.6157L57.5387 20.0504M39.3329 31.3529L67.5085 29.1793L57.5387 20.0504M39.3329 31.3529L57.5387 20.0504" stroke="#E6007A" stroke-width="2" stroke-linejoin="round"/>
<path d="M106.149 31.4174L101.805 40.5463H78.7788L106.149 31.4174ZM106.149 31.4174L103.543 18.8108H85.7301M106.149 31.4174L78.7788 29.6785L85.7301 18.8108M106.149 31.4174L85.7301 18.8108" stroke="#E6007A" stroke-width="2" stroke-linejoin="round"/>
<path d="M67.106 29.6785V40.5462H79.1813V29.6785L73.1437 26.0559L67.106 29.6785Z" stroke="#E6007A" stroke-width="2" stroke-linejoin="round"/>
</svg>
