<svg width="144" height="144" viewBox="0 0 144 144" fill="none" xmlns="http://www.w3.org/2000/svg">
<path d="M18.4476 86.9292L38.4615 85.3408M18.4476 86.9292L14 100.59M18.4476 86.9292L25.7543 98.0481M38.4615 85.3408L35.2847 100.59M38.4615 85.3408L25.7543 98.0481M35.2847 100.59L33.6963 114.885M35.2847 100.59L25.7543 98.0481M35.2847 100.59L26.7073 107.896M33.6963 114.885L38.4615 126.004M33.6963 114.885H14M33.6963 114.885L23.8482 120.286M38.4615 126.004L17.8122 127.275M38.4615 126.004L23.8482 120.286M17.8122 127.275L14 114.885M17.8122 127.275L23.8482 120.286M14 114.885V100.59M14 114.885L26.7073 107.896M14 114.885L23.8482 120.286M14 100.59L25.7543 98.0481M14 100.59L26.7073 107.896M25.7543 98.0481L26.7073 107.896" stroke="#E6007A" stroke-width="1.7" stroke-linejoin="round"/>
<path d="M26.3897 107.579L33.3787 114.885L43.2269 113.932M37.8263 92.3299L51.1689 88.8354M51.1689 88.8354L62.9232 86.9293L72.4537 83.4348H80.7134L85.4786 88.8354L84.2079 94.8714L74.9951 97.4128L62.9232 100.907L74.9951 103.131L85.4786 107.579L96.9152 104.402L111.846 101.86L124.236 99.0013L129.637 104.402L126.46 111.709L111.846 116.156L96.9152 119.651L83.2549 124.734L76.2659 126.322L58.7933 124.734L46.7214 122.827L37.8263 121.874L43.2269 113.932M51.1689 88.8354L35.2848 101.86M51.1689 88.8354L49.2628 100.907M43.2269 113.932L35.2848 101.86M43.2269 113.932L49.2628 100.907M35.2848 101.86L49.2628 100.907" stroke="#E6007A" stroke-width="1.7" stroke-linejoin="round"/>
<path d="M49.5804 101.225L53.7103 113.297M53.7103 113.297H43.2268L48.3097 123.145M53.7103 113.297L48.3097 123.145M53.7103 113.297L59.4286 120.286M48.3097 123.145L59.4286 120.286M59.4286 120.286L61.6523 125.369L67.6883 121.239M59.4286 120.286L67.6883 121.239M67.6883 121.239L70.5475 125.369L76.2657 121.239M76.2657 121.239V126.322M76.2657 121.239L84.5255 124.098L88.3377 118.38M88.3377 118.38L94.056 120.286L98.5035 114.885M88.3377 118.38L98.5035 114.885M98.5035 114.885L106.128 117.109L109.305 111.708M98.5035 114.885L109.305 111.708M109.305 111.708L115.341 114.885L118.518 109.167M109.305 111.708L118.518 109.167M118.518 109.167L126.46 111.708L124.236 105.99M118.518 109.167L124.236 105.99M124.236 105.99L129.636 104.402M124.236 105.99V99.3188" stroke="#E6007A" stroke-width="1.7" stroke-linejoin="round"/>
<path d="M76.9011 121.239L88.6554 118.698L81.6664 112.979L76.9011 121.239ZM76.9011 121.239H67.3707L65.1469 112.979M76.9011 121.239L65.1469 112.979M65.1469 112.979L59.7463 121.239M65.1469 112.979H53.7103" stroke="#E6007A" stroke-width="1.7" stroke-linejoin="round"/>
<path d="M96.5974 104.402L88.6554 117.745L85.7962 107.261L81.984 113.297M96.5974 104.402L98.5035 114.568M96.5974 104.402L108.987 111.709L111.211 102.178M111.211 102.178L117.882 108.849M111.211 102.178L123.6 105.99M81.984 113.297H65.4646M81.984 113.297L75.6304 103.449L65.4646 113.297M65.4646 113.297L63.5585 100.907M63.5585 100.907L53.7103 113.297L55.9341 102.178M63.5585 100.907L55.9341 102.178M63.5585 100.907L67.053 93.9183M63.5585 100.907L59.1109 94.5537M55.9341 102.178L49.2628 101.543M67.053 93.9183L74.042 97.4128L76.2658 90.7415M67.053 93.9183L76.2658 90.7415M67.053 93.9183L59.1109 94.5537M67.053 93.9183L63.5585 86.6116L59.1109 94.5537M67.053 93.9183L72.4536 83.4348L76.2658 90.7415M76.2658 90.7415L84.2078 94.5537L85.7962 89.1531L76.2658 90.7415ZM76.2658 90.7415L80.3956 83.4348M59.1109 94.5537L55.9341 101.543L51.1689 89.1531L59.1109 94.5537Z" stroke="#E6007A" stroke-width="1.7" stroke-linejoin="round"/>
<path d="M79.4426 40.1908H70.5475V49.7213M79.4426 40.1908L88.02 39.5554L88.3377 46.8621M79.4426 40.1908L88.3377 46.8621M79.4426 40.1908L70.5475 49.7213M79.4426 40.1908L80.7133 47.4975M88.3377 46.8621V54.8042L87.7023 63.0639M88.3377 46.8621L80.7133 47.4975M70.5475 49.7213L70.2298 57.6633M70.5475 49.7213L80.7133 47.4975M70.5475 49.7213L78.4895 54.8042L80.7133 47.4975M70.2298 57.6633L71.5005 70.0529L80.3956 70.3706M70.2298 57.6633L87.7023 63.0639M70.2298 57.6633L80.3956 70.3706M80.3956 70.3706L88.02 70.0529L87.7168 63.3816M80.3956 70.3706L87.7168 63.3816M87.7023 63.0639L87.7168 63.3816" stroke="#E6007A" stroke-width="1.7" stroke-linejoin="round"/>
<path d="M108.034 69.7352L116.929 69.7352L116.929 60.2048M108.034 69.7352L99.1389 70.3706M108.034 69.7352L99.1389 63.0639M108.034 69.7352L116.929 60.2048M108.034 69.7352L106.763 62.4285M99.1389 70.3706L99.1389 63.0639M99.1389 70.3706L87.3847 69.7352M99.1389 63.0639L99.1389 55.1218L99.7743 46.8621M99.1389 63.0639L106.763 62.4285M116.929 60.2048L117.247 52.2627M116.929 60.2048L106.763 62.4285M116.929 60.2048L108.987 55.1218L106.763 62.4285M117.247 52.2627L115.976 39.8731L107.081 39.5554M117.247 52.2627L99.7743 46.8621M117.247 52.2627L107.081 39.5554M107.081 39.5554L99.4566 39.8731L99.7599 46.5444M107.081 39.5554L99.7599 46.5444M99.7743 46.8621L99.7599 46.5444" stroke="#E6007A" stroke-width="1.7" stroke-linejoin="round"/>
<path d="M80.7133 47.4976L88.3377 54.8043H78.8072M78.8072 54.8043L87.7024 63.064M78.8072 54.8043L70.5475 57.6634" stroke="#E6007A" stroke-width="1.7" stroke-linejoin="round"/>
<path d="M106.763 62.4287L99.1388 55.122L108.669 55.122M108.669 55.122L99.7742 46.8623M108.669 55.122L116.929 52.2629" stroke="#E6007A" stroke-width="1.7" stroke-linejoin="round"/>
<path d="M70.5474 40.5086H65.4645V28.7543M65.4645 28.7543L76.9011 39.8732L81.0309 28.7543M65.4645 28.7543H81.0309M81.0309 28.7543L87.7023 39.2378V27.8013L81.0309 28.7543Z" stroke="#E6007A" stroke-width="1.7" stroke-linejoin="round"/>
<path d="M104.222 39.8731H99.1389V28.1188M99.1389 28.1188L110.576 39.2377L114.705 28.1188M99.1389 28.1188H114.705M114.705 28.1188L121.377 38.6023V27.1658L114.705 28.1188Z" stroke="#E6007A" stroke-width="1.7" stroke-linejoin="round"/>
<path d="M99.1388 28.1189H87.3846" stroke="#E6007A" stroke-width="1.7" stroke-linejoin="round"/>
<path d="M78.8073 28.4366L73.7243 23.036L79.7603 17.953M78.8073 28.4366L79.7603 17.953M78.8073 28.4366L87.7024 19.5415M79.7603 17.953L87.7024 19.5415M87.7024 19.5415L93.103 27.8012L98.5036 19.5415M98.5036 19.5415L104.222 17M98.5036 19.5415L107.081 27.8012M104.222 17L111.529 21.1299L107.081 27.8012M104.222 17L107.081 27.8012" stroke="#E6007A" stroke-width="1.7" stroke-linejoin="round"/>
<path d="M121.377 39.2378L115.658 40.1908" stroke="#E6007A" stroke-width="1.7" stroke-linejoin="round"/>
</svg>
