<svg width="144" height="144" viewBox="0 0 144 144" fill="none" xmlns="http://www.w3.org/2000/svg">
<path d="M18.4744 88.9626L86.6256 107.785V107.785C90.0902 117.987 81.8938 128.373 71.1659 127.374L14.9156 122.137L18.4744 88.9626Z" fill="#325EFF"/>
<path d="M67.9917 111.07L125.739 99.4881L126.795 99.2761C130.798 98.4735 134.17 101.264 134.17 105.379V105.379C134.17 109.021 131.506 112.458 127.981 113.365L75 127L67.9917 111.07Z" fill="#325EFF"/>
<rect x="16.343" y="96.2256" width="70.2935" height="15.2922" rx="7.64611" transform="rotate(-13.8068 16.343 96.2256)" fill="#325EFF"/>
<path d="M11.97 88.0931C12.4012 86.514 13.8584 85.5137 15.4953 85.5137H28.9502C31.6316 85.5137 33.625 88.118 33.126 90.7526C32.3755 94.7156 31.5524 100.676 31.5524 107.757C31.5524 114.838 32.3755 120.798 33.126 124.761C33.625 127.396 31.6316 130 28.9502 130H15.4953C13.8584 130 12.4012 129 11.97 127.421C11.0432 124.027 9.65674 117.347 9.65674 107.757C9.65674 98.1668 11.0432 91.4869 11.97 88.0931Z" fill="#E6007A"/>
<path d="M45.4543 125.327L32.9425 123.937C32.9425 123.937 31.5523 117.681 31.5523 108.297C31.5523 98.9132 32.9425 92.3097 32.9425 92.3097L44.4117 89.5293C44.4117 89.5293 40.2411 97.1754 40.2411 107.602C40.2411 118.028 45.4543 125.327 45.4543 125.327Z" fill="#3C3C3C" fill-opacity="0.2"/>
<path d="M50.6677 105.516L61.5687 100.998L76.734 105.169L50.6677 105.516Z" fill="#3C3C3C" fill-opacity="0.2"/>
<path d="M114.409 17C114.409 15.3431 113.066 14 111.409 14H107.458C101.316 14 96.3366 18.9793 96.3366 25.1216V25.1216H108.409C111.723 25.1216 114.409 22.4353 114.409 19.1216V17Z" fill="#94C804"/>
<path d="M76.1789 17C76.1789 15.3431 77.522 14 79.1789 14H83.1299C89.2722 14 94.2515 18.9793 94.2515 25.1216V25.1216H82.1789C78.8652 25.1216 76.1789 22.4353 76.1789 19.1216V17Z" fill="#94C804"/>
<path d="M101.943 19.3608C100.401 19.6946 99.2268 20.045 97.4446 21.2944L97.032 24.5984C98.4137 23.2147 99.5275 22.4309 101.28 21.7413C103.176 20.9954 104.62 20.8609 107.37 20.5933C105.59 19.6605 103.485 19.027 101.943 19.3608Z" fill="#499526" fill-opacity="0.6"/>
<path d="M88.3826 19.5045C89.8798 19.7917 91.022 20.1064 92.7679 21.3L93.2251 24.584C91.8643 23.2446 90.7731 22.4957 89.0656 21.8598C87.2188 21.1719 85.8193 21.0807 83.1551 20.8953C84.8599 19.9119 86.8853 19.2173 88.3826 19.5045Z" fill="#499526" fill-opacity="0.6"/>
<path d="M91.2323 21.1661C91.2323 19.0475 92.9497 17.3301 95.0683 17.3301V17.3301C97.1869 17.3301 98.9043 19.0475 98.9043 21.1661V21.7141C98.9043 23.53 97.4322 25.0021 95.6163 25.0021H94.5203C92.7044 25.0021 91.2323 23.53 91.2323 21.7141V21.1661Z" fill="#6D9108"/>
<path d="M70.7892 37.488H118.409V65.6754C118.409 67.8845 116.618 69.6754 114.409 69.6754H74.7892C72.5801 69.6754 70.7892 67.8845 70.7892 65.6754V37.488Z" fill="#04B99B"/>
<rect x="65.0571" y="24.7014" width="59.0836" height="12.7867" rx="4" fill="#088671"/>
<rect x="89.3082" y="37.488" width="11.0231" height="32.1873" fill="#BBFF00"/>
<rect x="89.3082" y="24.7014" width="11.0231" height="12.7867" fill="#6D9108"/>
<rect x="70.7892" y="37.488" width="47.6196" height="7.49568" fill="#3C3C3C" fill-opacity="0.2"/>
<path d="M118.409 44.9841L118.409 65.6758C118.409 67.8849 116.618 69.6758 114.409 69.6758L113.999 69.6758L113.999 44.9841L118.409 44.9841Z" fill="#3C3C3C" fill-opacity="0.2"/>
<path d="M108.047 44.9841H113.999V50.7161C113.779 48.5115 113.382 47.2328 112.677 46.5274C111.971 45.8219 110.251 45.2046 108.047 44.9841Z" fill="#0FA088"/>
</svg>
