<svg width="144" height="144" viewBox="0 0 144 144" fill="none" xmlns="http://www.w3.org/2000/svg">
<path d="M102.067 56.752L103.02 47.8569M102.067 58.0228L106.832 66.6002M94.4426 65.9648L85.8651 56.752" stroke="#E6007A" stroke-width="1.7" stroke-linejoin="round"/>
<path d="M49.967 66.9179L51.5554 80.8959L63.6274 78.0368M49.967 112.029V98.0508M54.7323 47.8569L51.5554 65.3295" stroke="#E6007A" stroke-width="1.7" stroke-linejoin="round"/>
<path d="M80.7822 48.1746L85.8651 56.752" stroke="#E6007A" stroke-width="1.7" stroke-linejoin="round"/>
<path d="M114.457 57.7052L102.385 57.0698" stroke="#E6007A" stroke-width="1.7" stroke-linejoin="round"/>
<path d="M38.5304 83.4373L36.942 112.346L64.5804 112.029L80.4645 112.982L96.984 113.935M38.5304 83.4373L35.989 66.2825H63.3097M38.5304 83.4373L51.5554 81.2135M109.056 95.1916L107.468 66.2825H80.1468M109.056 95.1916L107.468 112.664L96.984 113.935M109.056 95.1916L96.031 100.274L96.984 113.935" stroke="#E6007A" stroke-width="1.7"/>
<path d="M80.1468 66.9179H94.4426L114.457 66.2825V47.8569L92.8541 47.2215L44.5664 47.8569L29.953 46.5862L29.3177 66.2825L50.6024 66.9179H63.3097" stroke="#E6007A" stroke-width="1.7"/>
<path d="M64.5804 47.2214L80.1469 47.8568L80.4645 66.6001L81.0999 89.7909L80.1469 112.664L64.2627 112.029L64.8981 89.7909L63.6274 66.9177L64.5804 47.2214Z" stroke="#E6007A" stroke-width="1.7"/>
<path d="M37.2597 66.6001L42.0249 75.1775M51.5554 81.2135L63.945 66.6001M51.5554 81.2135L49.967 98.0507M51.5554 81.2135L43.931 92.0147M51.5554 81.2135L42.0249 75.1775M49.967 98.0507L37.2597 112.346L43.931 92.0147M49.967 98.0507L64.5804 89.7909M49.967 98.0507L43.931 92.0147M43.931 92.0147L39.1658 83.4373L42.0249 75.1775M42.0249 75.1775L49.967 67.2355" stroke="#E6007A" stroke-width="1.7" stroke-linejoin="round"/>
<path d="M107.15 112.664L96.6664 100.91M96.6664 100.91L80.4646 112.664M96.6664 100.91L92.2188 88.8379M96.6664 100.91L101.114 84.0726M91.5834 75.4952L107.15 66.9178L101.114 84.0726M91.5834 75.4952L81.0999 89.4732L92.2188 88.8379M91.5834 75.4952L92.2188 88.8379M91.5834 75.4952L101.114 84.0726M92.2188 88.8379L101.114 84.0726M101.114 84.0726L109.056 94.8738" stroke="#E6007A" stroke-width="1.7" stroke-linejoin="round"/>
<path d="M51.2377 81.2136L56.003 86.9319M64.8981 89.4734L56.003 86.9319M56.003 86.9319L50.2847 97.7331M56.003 86.9319L63.6273 78.3545" stroke="#E6007A" stroke-width="1.7" stroke-linejoin="round"/>
<path d="M80.7823 89.4733L86.8183 98.0507M86.8183 98.0507L96.3487 100.91L107.785 103.134M86.8183 98.0507L92.2189 89.4733M86.8183 98.0507L80.7823 112.346M102.067 84.3904L108.421 82.1666M80.7823 76.766L91.2658 75.4953L94.1249 66.2825" stroke="#E6007A" stroke-width="1.7" stroke-linejoin="round"/>
<path d="M58.5445 104.087L63.9451 111.711M58.5445 104.087L64.2627 90.4263M58.5445 104.087L49.967 111.711M58.5445 104.087L50.2847 98.0506" stroke="#E6007A" stroke-width="1.7" stroke-linejoin="round"/>
<path d="M91.2657 75.4954L80.1468 66.6003" stroke="#E6007A" stroke-width="1.7" stroke-linejoin="round"/>
<path d="M28.9999 66.2824L40.1188 55.4812M40.1188 55.4812L29.953 46.9038M40.1188 55.4812V66.2824" stroke="#E6007A" stroke-width="1.7" stroke-linejoin="round"/>
<path d="M114.774 47.8569L101.749 57.0697L114.774 66.2825" stroke="#E6007A" stroke-width="1.7" stroke-linejoin="round"/>
<path d="M50.9201 66.2825L44.8841 47.8569L40.4366 55.799L50.9201 66.2825ZM50.9201 66.2825L64.2628 47.8569" stroke="#E6007A" stroke-width="1.7" stroke-linejoin="round"/>
<path d="M92.8541 47.8569L94.7602 66.2825L101.749 57.0697L92.8541 47.8569ZM92.8541 47.8569L85.8651 57.0697L80.7822 66.2825" stroke="#E6007A" stroke-width="1.7" stroke-linejoin="round"/>
<path d="M45.8372 39.9658L49.6005 47.857L67.4396 46.904L45.8372 39.9658ZM45.8372 39.9658L47.8899 30.7021L60.2062 31.0452M45.8372 39.9658L68.075 38.2503L60.2062 31.0452M45.8372 39.9658L60.2062 31.0452" stroke="#E6007A" stroke-width="1.7" stroke-linejoin="round"/>
<path d="M98.5724 40.0165L95.1435 47.2215H76.97L98.5724 40.0165ZM98.5724 40.0165L96.5151 30.0667H82.4564M98.5724 40.0165L76.97 38.6441L82.4564 30.0667M98.5724 40.0165L82.4564 30.0667" stroke="#E6007A" stroke-width="1.7" stroke-linejoin="round"/>
<path d="M67.7573 38.6441V47.2215H77.2877V38.6441L72.5225 35.7849L67.7573 38.6441Z" stroke="#E6007A" stroke-width="1.7" stroke-linejoin="round"/>
</svg>
