<svg width="144" height="144" viewBox="0 0 144 144" fill="none" xmlns="http://www.w3.org/2000/svg">
<path d="M35.8056 65.2219H108.958V110.668C108.958 112.877 107.167 114.668 104.958 114.668H39.8056C37.5965 114.668 35.8056 112.877 35.8056 110.668V65.2219Z" fill="#325EFF"/>
<rect x="27" y="45.5789" width="90.7635" height="19.6428" rx="4" fill="#263F9A"/>
<rect x="64.2535" y="65.2219" width="16.9335" height="49.4458" fill="#BBFF00"/>
<rect x="64.2535" y="45.5789" width="16.9335" height="19.6428" fill="#6D9108"/>
<rect x="35.8056" y="65.2219" width="73.1527" height="11.5148" fill="#3C3C3C" fill-opacity="0.2"/>
<path d="M108.958 76.7366L108.958 110.668C108.958 112.877 107.167 114.668 104.958 114.668L102.185 114.668L102.185 76.7366L108.958 76.7366Z" fill="#3C3C3C" fill-opacity="0.2"/>
<path d="M99.4752 33.763C99.4752 31.6848 97.7905 30 95.7122 30H87.9605C79.3565 30 72.3817 36.9749 72.3817 45.5788V45.5788H93.4752C96.7889 45.5788 99.4752 42.8925 99.4752 39.5788V33.763Z" fill="#BBFF00"/>
<path d="M44.6107 33.763C44.6107 31.6848 46.2954 30 48.3737 30H56.1254C64.7294 30 71.7043 36.9749 71.7043 45.5788V45.5788H50.6107C47.297 45.5788 44.6107 42.8925 44.6107 39.5788V33.763Z" fill="#BBFF00"/>
<path d="M83.797 36.5219C81.3238 36.9737 79.4346 37.4435 76.5293 39.0948L75.6946 43.4185C77.9694 41.5956 79.7852 40.5598 82.6134 39.6407C85.6725 38.6466 87.9797 38.4563 92.3726 38.0789C89.589 36.8773 86.2702 36.0701 83.797 36.5219Z" fill="#04B99B"/>
<path d="M60.6914 36.6457C63.158 37.1131 65.0413 37.5949 67.9319 39.2645L68.7386 43.5933C66.4787 41.7562 64.6721 40.7088 61.8539 39.7719C58.8058 38.7585 56.5033 38.5536 52.1196 38.1484C54.9063 36.9644 58.2249 36.1782 60.6914 36.6457Z" fill="#04B99B"/>
<path d="M66.2857 39.8214C66.2857 36.6416 68.8634 34.064 72.0431 34.064V34.064C75.2228 34.064 77.8005 36.6416 77.8005 39.8214V40.6438C77.8005 43.3693 75.5911 45.5787 72.8656 45.5787H71.2206C68.4952 45.5787 66.2857 43.3693 66.2857 40.6438V39.8214Z" fill="#6D9108"/>
<path d="M93.0408 76.7366H102.185V85.542C101.846 82.1553 101.237 80.191 100.153 79.1073C99.0691 78.0235 96.4275 77.0752 93.0408 76.7366Z" fill="#3C3C3C" fill-opacity="0.2"/>
</svg>
