<svg width="144" height="144" viewBox="0 0 144 144" fill="none" xmlns="http://www.w3.org/2000/svg">
<path d="M49.5189 111.309L61.4785 106.352L78.1166 110.928L49.5189 111.309Z" fill="#3C3C3C" fill-opacity="0.2"/>
<path d="M8.33824 89.5747L32.3603 87.6682M8.33824 89.5747L3 105.971M8.33824 89.5747L17.1082 102.92M32.3603 87.6682L28.5473 105.971M32.3603 87.6682L17.1082 102.92M28.5473 105.971L26.6408 123.129M28.5473 105.971L17.1082 102.92M28.5473 105.971L18.2521 114.741M26.6408 123.129L32.3603 136.475M26.6408 123.129H3M26.6408 123.129L14.8204 129.612M32.3603 136.475L7.57563 138M32.3603 136.475L14.8204 129.612M7.57563 138L3 123.129M7.57563 138L14.8204 129.612M3 123.129V105.971M3 123.129L18.2521 114.741M3 123.129L14.8204 129.612M3 105.971L17.1082 102.92M3 105.971L18.2521 114.741M17.1082 102.92L18.2521 114.741" stroke="#E6007A" stroke-width="2" stroke-linejoin="round"/>
<path d="M17.8705 114.359L26.2592 123.129L38.0796 121.985M31.5974 96.0568L47.6121 91.8625M47.6121 91.8625L61.7203 89.5747L73.1594 85.3804H83.0733L88.7928 91.8625L87.2676 99.1073L76.2098 102.158L61.7203 106.352L76.2098 109.021L88.7928 114.359L102.52 110.546L120.441 107.496L135.312 104.064L141.794 110.546L137.981 119.316L120.441 124.655L102.52 128.849L86.1237 134.95L77.735 136.856L56.7634 134.95L42.2739 132.662L31.5974 131.518L38.0796 121.985M47.6121 91.8625L28.547 107.496M47.6121 91.8625L45.3243 106.352M38.0796 121.985L28.547 107.496M38.0796 121.985L45.3243 106.352M28.547 107.496L45.3243 106.352" stroke="#E6007A" stroke-width="2" stroke-linejoin="round"/>
<path d="M45.7061 106.733L50.663 121.223M50.663 121.223H38.08L44.1808 133.043M50.663 121.223L44.1808 133.043M50.663 121.223L57.5264 129.612M44.1808 133.043L57.5264 129.612M57.5264 129.612L60.1956 135.712L67.4403 130.755M57.5264 129.612L67.4403 130.755M67.4403 130.755L70.872 135.712L77.7355 130.755M77.7355 130.755V136.856M77.7355 130.755L87.6493 134.187L92.225 127.324M92.225 127.324L99.0884 129.612L104.427 123.129M92.225 127.324L104.427 123.129M104.427 123.129L113.578 125.799L117.391 119.316M104.427 123.129L117.391 119.316M117.391 119.316L124.636 123.129L128.449 116.266M117.391 119.316L128.449 116.266M128.449 116.266L137.981 119.316L135.312 112.453M128.449 116.266L135.312 112.453M135.312 112.453L141.794 110.546M135.312 112.453V104.446" stroke="#E6007A" stroke-width="2" stroke-linejoin="round"/>
<path d="M78.4978 130.755L92.606 127.705L84.2174 120.842L78.4978 130.755ZM78.4978 130.755H67.0588L64.3896 120.842M78.4978 130.755L64.3896 120.842M64.3896 120.842L57.9075 130.755M64.3896 120.842H50.6628" stroke="#E6007A" stroke-width="2" stroke-linejoin="round"/>
<path d="M102.138 110.546L92.6058 126.561L89.1741 113.978L84.5985 121.223M102.138 110.546L104.426 122.748M102.138 110.546L117.009 119.316L119.678 107.877M119.678 107.877L127.686 115.885M119.678 107.877L134.549 112.453M84.5985 121.223H64.7707M84.5985 121.223L76.9724 109.402L64.7707 121.223M64.7707 121.223L62.4829 106.352M62.4829 106.352L50.6625 121.223L53.3316 107.877M62.4829 106.352L53.3316 107.877M62.4829 106.352L66.6772 97.9634M62.4829 106.352L57.1447 98.726M53.3316 107.877L45.3243 107.115M66.6772 97.9634L75.0659 102.158L77.735 94.1503M66.6772 97.9634L77.735 94.1503M66.6772 97.9634L57.1447 98.726M66.6772 97.9634L62.4829 89.1934L57.1447 98.726M66.6772 97.9634L73.1594 85.3804L77.735 94.1503M77.735 94.1503L87.2676 98.726L89.1741 92.2438L77.735 94.1503ZM77.735 94.1503L82.6919 85.3804M57.1447 98.726L53.3316 107.115L47.6121 92.2438L57.1447 98.726Z" stroke="#E6007A" stroke-width="2" stroke-linejoin="round"/>
<path d="M81.5484 33.8351H70.8719V45.2742M81.5484 33.8351L91.8436 33.0725L92.2249 41.8425M81.5484 33.8351L92.2249 41.8425M81.5484 33.8351L70.8719 45.2742M81.5484 33.8351L83.0736 42.6051M92.2249 41.8425V51.375L91.4623 61.2889M92.2249 41.8425L83.0736 42.6051M70.8719 45.2742L70.4906 54.8068M70.8719 45.2742L83.0736 42.6051M70.8719 45.2742L80.4045 51.375L83.0736 42.6051M70.4906 54.8068L72.0158 69.6776L82.6923 70.0589M70.4906 54.8068L91.4623 61.2889M70.4906 54.8068L82.6923 70.0589M82.6923 70.0589L91.8436 69.6776L91.4796 61.6702M82.6923 70.0589L91.4796 61.6702M91.4623 61.2889L91.4796 61.6702" stroke="#E6007A" stroke-width="2" stroke-linejoin="round"/>
<path d="M115.866 69.2962L126.542 69.2962L126.542 57.8571M115.866 69.2962L105.189 70.0588M115.866 69.2962L105.189 61.2889M115.866 69.2962L126.542 57.8571M115.866 69.2962L114.341 60.5263M105.189 70.0588L105.189 61.2889M105.189 70.0588L91.0811 69.2962M105.189 61.2889L105.189 51.7563L105.952 41.8424M105.189 61.2889L114.341 60.5263M126.542 57.8571L126.924 48.3246M126.542 57.8571L114.341 60.5263M126.542 57.8571L117.01 51.7563L114.341 60.5263M126.924 48.3246L125.398 33.4538L114.722 33.0725M126.924 48.3246L105.952 41.8424M126.924 48.3246L114.722 33.0725M114.722 33.0725L105.571 33.4538L105.935 41.4611M114.722 33.0725L105.935 41.4611M105.952 41.8424L105.935 41.4611" stroke="#E6007A" stroke-width="2" stroke-linejoin="round"/>
<path d="M83.0733 42.605L92.2245 51.3749H80.7855M80.7855 51.3749L91.4619 61.2888M80.7855 51.3749L70.8716 54.8067" stroke="#E6007A" stroke-width="2" stroke-linejoin="round"/>
<path d="M114.34 60.5264L105.189 51.7564L116.628 51.7564M116.628 51.7564L105.951 41.8425M116.628 51.7564L126.542 48.3247" stroke="#E6007A" stroke-width="2" stroke-linejoin="round"/>
<path d="M70.8721 34.2165H64.7712V20.1083M64.7712 20.1083L78.4981 33.4539L83.455 20.1083M64.7712 20.1083H83.455M83.455 20.1083L91.4624 32.6913V18.9644L83.455 20.1083Z" stroke="#E6007A" stroke-width="2" stroke-linejoin="round"/>
<path d="M111.29 33.4538H105.189V19.3456M105.189 19.3456L118.916 32.6912L123.872 19.3456M105.189 19.3456H123.872M123.872 19.3456L131.88 31.9286V18.2017L123.872 19.3456Z" stroke="#E6007A" stroke-width="2" stroke-linejoin="round"/>
<path d="M105.189 19.3455H91.0806" stroke="#E6007A" stroke-width="2" stroke-linejoin="round"/>
<path d="M80.7856 19.7269L74.6847 13.2448L81.9295 7.14391M80.7856 19.7269L81.9295 7.14391M80.7856 19.7269L91.462 9.05042M81.9295 7.14391L91.462 9.05042M91.462 9.05042L97.9442 18.9643L104.426 9.05042M104.426 9.05042L111.29 6M104.426 9.05042L114.721 18.9643M111.29 6L120.06 10.9569L114.721 18.9643M111.29 6L114.721 18.9643" stroke="#E6007A" stroke-width="2" stroke-linejoin="round"/>
<path d="M131.88 32.6912L125.017 33.8351" stroke="#E6007A" stroke-width="2" stroke-linejoin="round"/>
</svg>
