<svg width="144" height="144" viewBox="0 0 144 144" fill="none" xmlns="http://www.w3.org/2000/svg">
<path d="M26.333 55.0559L5 61.8986L19.8928 72.7663M26.333 55.0559L19.8928 72.7663M26.333 55.0559L32.3706 75.9864M19.8928 72.7663L32.3706 75.9864M32.3706 75.9864L39.2132 84.439L54.106 72.7663L32.3706 75.9864Z" stroke="#E6007A" stroke-width="2" stroke-linejoin="round"/>
<path d="M32.3706 75.9863L46.0559 59.4835M46.0559 59.4835L26.3329 55.4584L41.6283 47.8107M46.0559 59.4835L41.6283 47.8107M46.0559 59.4835L54.5085 72.7662L65.7788 63.106M46.0559 59.4835L65.7788 63.106M46.0559 59.4835L54.5085 43.3831M41.6283 47.8107L54.5085 43.3831M65.7788 63.106L54.5085 43.3831M65.7788 63.106L78.2566 55.4584M54.5085 43.3831L78.2566 55.4584M54.5085 43.3831L69.8039 37.748M78.2566 55.4584L69.8039 37.748M78.2566 55.4584L87.1117 48.6157M69.8039 37.748L87.1117 48.6157M69.8039 37.748L81.8791 34.1254M87.1117 48.6157L81.8791 34.1254M87.1117 48.6157L95.9669 40.9681M81.8791 34.1254L95.9669 40.9681M81.8791 34.1254L93.5519 28.4903M95.9669 40.9681L93.5519 28.4903M95.9669 40.9681L103.615 36.5405M93.5519 28.4903L103.615 36.5405M93.5519 28.4903L105.225 24.8677M103.615 36.5405L105.225 24.8677M103.615 36.5405L111.262 30.1003M105.225 24.8677L111.262 30.1003M105.225 24.8677L116.092 19.6351M111.262 30.1003L116.092 19.6351M111.262 30.1003L122.935 22.4527M116.092 19.6351L122.935 22.4527M116.092 19.6351L136.62 14L122.935 22.4527" stroke="#E6007A" stroke-width="2" stroke-linejoin="round"/>
<path d="M62.1562 96.5143L61.4285 95.8283C61.2243 96.0449 61.1272 96.3412 61.1637 96.6367C61.2001 96.9321 61.3663 97.1959 61.6169 97.3564L62.1562 96.5143ZM107.65 75.6203L108.429 76.2465C108.444 76.2279 108.459 76.2088 108.472 76.1892L107.65 75.6203ZM91.7964 64.0541L91.0884 63.3479C91.0739 63.3624 91.0598 63.3774 91.0463 63.3928L91.7964 64.0541ZM114.08 66.326L114.902 66.895C114.982 66.7804 115.036 66.6505 115.062 66.5136L114.08 66.326ZM108.292 44.6233L107.578 43.9239C107.543 43.9593 107.511 43.9973 107.482 44.0376L108.292 44.6233ZM120.972 46.9246L121.824 47.448C121.854 47.3982 121.881 47.3459 121.902 47.2916L120.972 46.9246ZM123.917 26.1205L123.239 25.3859C123.19 25.4308 123.146 25.4803 123.107 25.5339L123.917 26.1205ZM131.277 25.348L132.156 25.8235C132.16 25.816 132.164 25.8085 132.168 25.8009L131.277 25.348ZM137.042 14L138.029 13.8375C137.969 13.4746 137.715 13.1738 137.367 13.0543C137.019 12.9348 136.634 13.0158 136.363 13.2653L137.042 14ZM105.225 129.117L104.544 129.85C104.784 130.073 105.118 130.164 105.438 130.095C105.757 130.025 106.023 129.803 106.148 129.5L105.225 129.117ZM112.067 112.615L112.991 112.998C112.996 112.985 113.001 112.972 113.006 112.959L112.067 112.615ZM116.347 100.942L117.286 101.286C117.301 101.244 117.314 101.2 117.324 101.156L116.347 100.942ZM118.91 89.2691L118.002 88.85C117.972 88.9156 117.949 88.9841 117.933 89.0546L118.91 89.2691ZM123.74 78.8039L124.648 79.2229C124.681 79.1517 124.705 79.0769 124.721 79L123.74 78.8039ZM125.753 68.7412L124.797 68.4471C124.787 68.4793 124.779 68.512 124.772 68.545L125.753 68.7412ZM128.973 58.2759L129.928 58.57C129.941 58.5298 129.951 58.4888 129.958 58.4473L128.973 58.2759ZM130.583 49.0183L129.66 48.6336C129.631 48.7022 129.61 48.7737 129.597 48.8469L130.583 49.0183ZM134.608 39.358L135.531 39.7427C135.582 39.6208 135.608 39.4901 135.608 39.358H134.608ZM134.608 30.9054L133.734 30.4197C133.651 30.5683 133.608 30.7354 133.608 30.9054H134.608ZM138.633 23.6602L139.507 24.1459C139.616 23.9487 139.656 23.7203 139.619 23.4977L138.633 23.6602ZM44.4458 97.7218L45.4058 97.4418C45.3988 97.4178 45.3909 97.3941 45.3821 97.3707L44.4458 97.7218ZM47.2634 107.382L46.3034 107.662C46.3082 107.678 46.3133 107.694 46.3189 107.711L47.2634 107.382ZM53.3011 124.69L52.3572 125.02C52.465 125.328 52.7162 125.564 53.0303 125.652C53.3444 125.741 53.6818 125.67 53.9343 125.464L53.3011 124.69ZM62.1562 117.445L61.5606 116.641C61.5478 116.651 61.5353 116.661 61.5229 116.671L62.1562 117.445ZM68.9989 112.212L68.3911 111.418C68.3287 111.466 68.2723 111.521 68.2228 111.581L68.9989 112.212ZM68.6718 112.615L69.2674 113.418C69.3345 113.368 69.3952 113.31 69.4479 113.245L68.6718 112.615ZM50.4835 116.64L49.539 116.968L49.5396 116.97L50.4835 116.64ZM82.0161 108.605L82.2298 94.4789L80.23 94.4487L80.0163 108.574L82.0161 108.605ZM81.123 93.4695L62.0493 95.52L62.263 97.5085L81.3368 95.4581L81.123 93.4695ZM62.8838 97.2002L72.5149 86.9832L71.0596 85.6113L61.4285 95.8283L62.8838 97.2002ZM71.1331 87.0536L80.5757 95.2202L81.884 93.7074L72.4414 85.5409L71.1331 87.0536ZM80.7427 95.3371L94.492 103.008L95.4664 101.261L81.7171 93.5905L80.7427 95.3371ZM95.9584 102.337L98.9589 87.862L97.0005 87.456L94 101.931L95.9584 102.337ZM97.6033 86.7325L80.8535 93.5373L81.6063 95.3902L98.3561 88.5855L97.6033 86.7325ZM82.2298 94.452L82.0161 76.269L80.0163 76.2925L80.23 94.4755L82.2298 94.452ZM80.2808 75.6031L71.0518 85.6196L72.5226 86.9748L81.7516 76.9584L80.2808 75.6031ZM80.4592 77.1112L97.4227 88.4895L98.5367 86.8285L81.5733 75.4503L80.4592 77.1112ZM98.7593 88.2852L108.429 76.2465L106.87 74.9941L97.2001 87.0328L98.7593 88.2852ZM107.625 74.6206L80.9914 75.2811L81.041 77.2804L107.675 76.62L107.625 74.6206ZM81.7663 76.9421L92.5464 64.7155L91.0463 63.3928L80.2661 75.6194L81.7663 76.9421ZM91.207 64.862L107.06 76.4281L108.239 74.8124L92.3857 63.2463L91.207 64.862ZM108.472 76.1892L114.902 66.895L113.258 65.7571L106.827 75.0513L108.472 76.1892ZM114.181 65.3312L91.8978 63.0593L91.6949 65.049L113.979 67.3209L114.181 65.3312ZM92.5044 64.7603L101.408 55.8347L99.9916 54.4223L91.0884 63.3479L92.5044 64.7603ZM100.058 55.8954L113.438 67.0929L114.722 65.5591L101.341 54.3616L100.058 55.8954ZM115.062 66.5136L117.329 54.6421L115.365 54.267L113.098 66.1385L115.062 66.5136ZM116.304 53.4555L100.657 54.1294L100.743 56.1276L116.39 55.4536L116.304 53.4555ZM101.51 55.7143L109.103 45.2091L107.482 44.0376L99.8891 54.5427L101.51 55.7143ZM107.519 45.2571L115.573 55.0883L117.12 53.8208L109.066 43.9896L107.519 45.2571ZM117.199 54.9779L121.824 47.448L120.12 46.4013L115.495 53.9312L117.199 54.9779ZM121.15 45.9407L108.471 43.6394L108.114 45.6073L120.793 47.9086L121.15 45.9407ZM109.007 45.3228L117.556 36.5885L116.127 35.1895L107.578 43.9239L109.007 45.3228ZM115.905 36.2395L120.035 47.2752L121.908 46.5741L117.778 35.5384L115.905 36.2395ZM121.902 47.2916L125.571 37.9908L123.71 37.257L120.041 46.5577L121.902 47.2916ZM124.857 36.6478L117.059 34.9128L116.624 36.8651L124.423 38.6L124.857 36.6478ZM117.651 36.4756L124.727 26.7071L123.107 25.5339L116.032 35.3024L117.651 36.4756ZM122.919 26.1833L123.642 37.6867L125.638 37.5612L124.915 26.0578L122.919 26.1833ZM125.52 38.0995L132.156 25.8235L130.397 24.8724L123.761 37.1483L125.52 38.0995ZM131.172 24.3534L123.813 25.126L124.021 27.1151L131.381 26.3425L131.172 24.3534ZM124.596 26.8552L137.72 14.7347L136.363 13.2653L123.239 25.3859L124.596 26.8552ZM136.15 13.5471L130.385 24.895L132.168 25.8009L137.933 14.4529L136.15 13.5471ZM81.4359 109.497L95.3989 103.042L94.5596 101.227L80.5966 107.682L81.4359 109.497ZM80.4179 109.391L91.198 117.441L92.3947 115.838L81.6146 107.788L80.4179 109.391ZM91.1157 117.372L104.544 129.85L105.905 128.385L92.4771 115.907L91.1157 117.372ZM106.148 129.5L112.991 112.998L111.143 112.232L104.301 128.734L106.148 129.5ZM111.872 111.634L91.6016 115.659L91.9911 117.621L112.262 113.595L111.872 111.634ZM92.7731 116.854L95.956 102.349L94.0025 101.92L90.8196 116.425L92.7731 116.854ZM112.59 111.762L95.502 101.282L94.4564 102.987L111.544 113.467L112.59 111.762ZM95.0349 103.133L116.402 101.94L116.291 99.9434L94.9235 101.136L95.0349 103.133ZM115.408 100.598L111.128 112.27L113.006 112.959L117.286 101.286L115.408 100.598ZM97.3937 88.4693L115.761 101.752L116.933 100.132L98.5657 86.8487L97.3937 88.4693ZM117.324 101.156L119.887 89.4836L117.933 89.0546L115.37 100.727L117.324 101.156ZM119.818 89.6882L124.648 79.2229L122.832 78.3848L118.002 88.85L119.818 89.6882ZM124.721 79L126.733 68.9373L124.772 68.545L122.759 78.6078L124.721 79ZM126.708 69.0352L129.928 58.57L128.017 57.9819L124.797 68.4471L126.708 69.0352ZM129.958 58.4473L131.568 49.1896L129.597 48.8469L127.987 58.1046L129.958 58.4473ZM131.506 49.4029L135.531 39.7427L133.685 38.9734L129.66 48.6336L131.506 49.4029ZM135.608 39.358V30.9054H133.608V39.358H135.608ZM135.482 31.391L139.507 24.1459L137.759 23.1746L133.734 30.4197L135.482 31.391ZM139.619 23.4977L138.029 13.8375L136.055 14.1625L137.646 23.8227L139.619 23.4977ZM43.4858 98.0018L46.3034 107.662L48.2234 107.102L45.4058 97.4418L43.4858 98.0018ZM53.9343 125.464L62.7894 118.219L61.5229 116.671L52.6678 123.916L53.9343 125.464ZM61.6169 97.3564L76.5099 106.892L77.5883 105.207L62.6954 95.6721L61.6169 97.3564ZM76.5099 106.892L80.477 109.432L81.5554 107.747L77.5883 105.207L76.5099 106.892ZM69.6068 113.006L77.6569 106.844L76.4412 105.255L68.3911 111.418L69.6068 113.006ZM62.7517 118.248L69.2674 113.418L68.0763 111.811L61.5606 116.641L62.7517 118.248ZM69.4479 113.245L69.775 112.843L68.2228 111.581L67.8957 111.984L69.4479 113.245ZM46.3189 107.711L49.539 116.968L51.428 116.311L48.2079 107.053L46.3189 107.711ZM49.5396 116.97L52.3572 125.02L54.2449 124.359L51.4273 116.309L49.5396 116.97ZM38.6794 85.1926L43.5095 98.0729L45.3821 97.3707L40.552 84.4904L38.6794 85.1926Z" fill="#E6007A"/>
<path d="M98.7845 87.6592L118.507 89.2692L107.237 75.9864L124.143 79.2065L113.677 66.7287H125.753L116.495 55.056L128.973 57.471L120.922 47.8108L130.583 49.4209L124.143 38.1506M124.143 38.1506L134.608 40.1632M124.143 38.1506L134.608 30.9055L132.193 25.2704L138.23 23.2578" stroke="#E6007A" stroke-width="2" stroke-linejoin="round"/>
<path d="M62.5587 97.3192L53.7035 123.885M62.5587 97.3192L39.2132 84.8415M62.5587 97.3192L65.3763 63.911L81.4766 76.3888L86.3067 48.6157L101.602 55.0558L103.615 36.943L116.897 36.1379" stroke="#E6007A" stroke-width="2" stroke-linejoin="round"/>
</svg>
