<svg width="256" height="256" viewBox="0 0 256 256" fill="none" xmlns="http://www.w3.org/2000/svg">
<g clip-path="url(#clip0_1968_2823)">
<path d="M41.6854 188.774L119.404 77.1128C118.086 92.2993 128.727 122.672 143.701 144.745C158.512 166.579 177.226 184.173 188.62 188.323L51.0551 204.419C42.495 205.421 36.7619 195.848 41.6854 188.774Z" fill="#E6007A"/>
<path d="M164.298 122.63C148.025 100.239 129.359 80.5997 119.377 77.1128C117.117 89.9294 124.632 115.449 140.001 139.876C155.37 164.303 176.163 184.64 188.594 188.221C189.159 173.614 180.571 145.022 164.298 122.63Z" fill="#8D0C50"/>
<path d="M133.654 149.219C120.749 133.603 111.431 102.393 109.082 92L97.082 109C98.7733 122.482 106.748 140.692 122.097 158.769C137.601 177.026 151.131 186.295 162.97 191.351L188.621 188.261C164.379 177.026 149.44 168.319 133.654 149.219Z" fill="#BBFF00"/>
<path d="M70.315 147.575L79.6533 133.992C83.615 141.915 87.8315 151.203 101.769 165.855C115.875 180.683 121.534 185.494 141.343 193.983L117.855 196.53C107.385 190.871 99.4618 184.645 89.3008 173.608C81.5961 165.239 75.0333 157.434 70.315 147.575Z" fill="#BBFF00"/>
<path d="M49.3746 178.136L56.449 167.666C60.1278 174.458 62.6746 178.136 70.881 185.211C78.7047 191.956 81.3512 193.134 94.0852 199.36L75.4086 201.624C68.9001 198.794 65.946 197.096 60.7264 192.543C57.4131 189.653 54.935 187.547 49.3746 178.136Z" fill="#BBFF00"/>
<path d="M55.5819 204L188.229 188.221C186.273 187.309 179.622 183.918 172.189 178.05C165.538 172.799 157.714 163.183 156.149 162.009C156.149 162.009 132.284 176.093 104.116 182.744C75.9472 189.395 44.082 185.5 44.082 185.5C38.6049 192.542 38.7807 195.914 42.3018 201C45.6781 205.877 52.452 204.391 55.5819 204Z" fill="#424242" fill-opacity="0.4"/>
<path d="M165.167 66.6242C162.877 65.7106 159.634 65.1016 158.298 64.9112V55.2046C160.969 55.9659 164.022 56.3465 167.457 58.0595C170.319 59.487 173.754 61.4854 173.754 63.7693V74.6179C173.563 75.7598 173.754 77.6631 171.464 79.1857C169.747 80.3277 166.374 82.7604 162.305 85.4665C155.436 90.0343 146.277 94.6022 142.27 96.8861C139.241 98.612 135.973 100.312 135.973 102.025C135.973 103.738 137.919 104.651 141.125 106.022C144.33 107.392 148.566 108.877 150.284 109.448V118.583C148.376 118.012 144.101 116.642 142.27 115.728C139.98 114.586 137.118 112.873 135.4 111.732C133.683 110.59 132.538 109.448 132.538 107.735C132.538 106.022 131.966 99.17 132.538 96.8861C133.111 94.6022 134.255 92.8892 137.69 90.0343C141.125 87.1794 154.291 80.3277 160.588 77.4728C166.884 74.6179 170.892 70.621 170.319 69.4791C169.747 68.3371 168.029 67.7661 165.167 66.6242Z" fill="#BBFF00"/>
<path d="M160.729 94.6158L168.022 93.0931C167.685 94.702 167.162 98.3985 167.761 100.313C168.36 102.227 170.366 105.281 171.294 106.568L164.408 108.385C163.48 107.097 161.451 103.904 160.761 101.43C160.071 98.9558 160.452 95.8563 160.729 94.6158Z" fill="#00EBC4"/>
<path d="M226.821 130.009C229.1 131.655 231.797 134.838 232.86 136.223L222.344 142.208C221.59 141.252 219.57 138.847 217.526 136.876C215.481 134.905 211.356 134.271 209.549 134.201L219.772 128.621C221.172 128.398 224.542 128.363 226.821 130.009Z" fill="#00EBC4"/>
<path d="M171.977 157.065L179.775 160.845C179.346 161.153 178.522 162.409 178.652 164.973C178.815 168.177 182.966 165.002 184.659 164.373C186.013 163.87 195.348 158.719 199.847 156.207C202.3 155.098 207.81 153.07 210.233 153.832C213.261 154.784 212.658 159.905 212.414 162.815C212.219 165.143 211.139 171.154 210.623 173.868L203.054 171.487C203.743 169.104 205.007 163.638 204.551 160.84C203.982 157.341 200.01 159.411 196.038 161.48C192.86 163.136 186.965 166.039 184.414 167.283C181.517 167.865 176.942 169.911 171.473 167.195C168.157 165.548 170.393 159.83 171.977 157.065Z" fill="#00EBC4"/>
<path d="M194.521 55.0001L185.428 55.6757C186.727 55.5792 187.463 55.8271 187.769 56.4647L189.609 60.2902C190.1 61.3103 190.819 64.4376 191.594 65.233C192.369 66.0284 198.797 65.5233 199.895 65.3591C200.681 65.2417 202.426 63.0066 203.224 61.6725C203.224 61.6725 198.055 61.5336 197.587 61.3758C197.119 61.218 196.771 58.5364 196.539 56.7487C196.307 54.9609 195.097 54.8381 194.521 55.0001Z" fill="#8F00FF"/>
<path d="M195.126 143.737L198.345 135.206C197.885 136.425 197.35 136.988 196.643 136.997L192.398 137.053C191.266 137.068 188.127 136.403 187.079 136.77C186.032 137.138 183.781 143.18 183.467 144.245C183.242 145.007 184.533 147.532 185.407 148.817C185.407 148.817 187.711 144.189 188.052 143.831C188.392 143.472 190.97 144.287 192.689 144.83C194.408 145.373 195.03 144.328 195.126 143.737Z" fill="#325EFF"/>
<path d="M189.456 116.295C185.651 116.273 184.067 113.954 183.751 112.798L192.154 111.432C192.154 111.432 193.421 113.958 194.055 113.647C194.69 113.336 196.118 110.668 198.023 106.587C199.096 104.288 201.992 96.3786 202.787 92.448C203.582 88.5175 205.173 79.0823 206.918 78.6204C208.662 78.1585 215.004 76.6222 215.955 76.9426C216.906 77.2631 219.441 80.7412 221.183 83.4276C222.925 86.1139 225.458 92.7403 229.102 96.0676C232.018 98.7294 235.177 100.564 236.392 101.148L227.513 102.355C225.929 101.296 222.094 98.3241 219.432 94.9082C216.771 91.4923 213.994 86.4281 212.939 84.323C212.674 85.1085 211.954 87.5598 211.191 91.0813C210.237 95.4831 210.078 95.9544 207.696 103.024C205.314 110.093 201.507 113.533 199.604 114.467C197.701 115.4 194.212 116.324 189.456 116.295Z" fill="#E6007A"/>
<path d="M155.668 131.908C152.941 132.115 150.081 132.058 148.992 132.004L149.847 143.551C152.546 143.991 152.972 144.135 156.807 144.02C158.658 143.964 162.193 141.804 165.613 141.827C168.454 141.846 169.306 142.133 170.585 142.564L170.157 131.161C168.547 130.775 164.844 130.028 162.912 130.128C160.498 130.252 159.077 131.65 155.668 131.908Z" fill="#04B99B"/>
<path d="M242.082 118.778C242.321 117.286 243.084 114.919 243.638 113.858L252.204 115.56C251.373 117.152 251.117 118.746 250.924 119.949C250.626 121.814 250.966 125.689 250.539 127.152C250.112 128.615 249.018 129.848 248.471 130.464L240.183 128.231C240.644 127.347 241.34 125.283 241.59 124.244C242.166 121.848 241.783 120.643 242.082 118.778Z" fill="#325EFF"/>
<path d="M223.245 65.0359C221.918 65.5761 219.625 66.1215 218.492 66.1943L215.658 58.4149C217.357 58.3057 218.775 57.7284 219.845 57.2929C221.503 56.6176 224.476 54.4362 225.872 54.0622C227.267 53.6882 228.804 53.9685 229.573 54.1087L231.841 61.9245C230.897 61.9852 228.882 62.4366 227.917 62.7453C225.692 63.457 224.903 64.3606 223.245 65.0359Z" fill="#325EFF"/>
<path d="M136.8 55.8369C138.204 56.1217 140.416 56.9376 141.399 57.5041L139.452 65.5513C137.976 64.7014 136.476 64.397 135.344 64.1674C133.589 63.8113 129.906 63.9817 128.537 63.5204C127.167 63.0591 126.042 61.9744 125.48 61.432L127.919 53.6682C128.739 54.1403 130.667 54.88 131.641 55.1574C133.888 55.7967 135.045 55.4809 136.8 55.8369Z" fill="#04B99B"/>
<path d="M239.055 162.824C240.605 162.409 243.229 162.122 244.498 162.199L246.564 171.238C244.661 171.123 243.005 171.567 241.755 171.902C239.818 172.421 236.211 174.431 234.608 174.653C233.006 174.874 231.336 174.348 230.502 174.085L229.07 165.085C230.128 165.149 232.429 164.928 233.545 164.719C236.116 164.238 237.118 163.344 239.055 162.824Z" fill="#E6007A"/>
</g>
<defs>
<clipPath id="clip0_1968_2823">
<rect width="256" height="256" fill="white"/>
</clipPath>
</defs>
</svg>
