<svg width="144" height="144" viewBox="0 0 144 144" fill="none" xmlns="http://www.w3.org/2000/svg">
<path d="M31.7067 63.8264H112.346V114.332C112.346 116.541 110.555 118.332 108.346 118.332H35.7067C33.4976 118.332 31.7067 116.541 31.7067 114.332V63.8264Z" fill="#325EFF"/>
<rect x="22" y="42.1731" width="100.052" height="21.653" rx="4" fill="#263F9A"/>
<rect x="63.0659" y="63.8264" width="18.6664" height="54.5059" fill="#BBFF00"/>
<rect x="63.0659" y="42.1731" width="18.6664" height="21.653" fill="#6D9108"/>
<rect x="31.7067" y="63.8264" width="80.6388" height="12.6932" fill="#3C3C3C" fill-opacity="0.2"/>
<path d="M112.345 76.5195L112.345 114.332C112.345 116.541 110.554 118.332 108.345 118.332L104.879 118.332L104.879 76.5195L112.345 76.5195Z" fill="#3C3C3C" fill-opacity="0.2"/>
<path d="M101.892 29.1481C101.892 26.8572 100.035 25 97.744 25H89.1989C79.7145 25 72.0258 32.6887 72.0258 42.1731V42.1731H95.892C99.2057 42.1731 101.892 39.4868 101.892 36.1731V29.1481Z" fill="#BBFF00"/>
<path d="M41.4129 29.1481C41.4129 26.8572 43.27 25 45.561 25H54.106C63.5904 25 71.2791 32.6887 71.2791 42.1731V42.1731H47.4129C44.0992 42.1731 41.4129 39.4868 41.4129 36.1731V29.1481Z" fill="#BBFF00"/>
<path d="M84.6094 32.1893C81.8831 32.6874 79.8006 33.2052 76.5979 35.0255L75.6779 39.7916C78.1854 37.7823 80.187 36.6404 83.3047 35.6272C86.6768 34.5314 89.2202 34.3217 94.0626 33.9056C90.9942 32.5811 87.3357 31.6912 84.6094 32.1893Z" fill="#04B99B"/>
<path d="M59.1393 32.3257C61.8583 32.841 63.9343 33.3721 67.1208 35.2125L68.0099 39.9844C65.5188 37.9592 63.5273 36.8047 60.4207 35.7719C57.0607 34.6547 54.5226 34.4289 49.6903 33.9822C52.7621 32.6771 56.4203 31.8104 59.1393 32.3257Z" fill="#04B99B"/>
<path d="M65.3061 35.8263C65.3061 32.3212 68.1475 29.4797 71.6527 29.4797V29.4797C75.1578 29.4797 77.9992 32.3212 77.9992 35.8263V36.733C77.9992 39.7374 75.5637 42.1729 72.5593 42.1729H70.746C67.7416 42.1729 65.3061 39.7374 65.3061 36.733V35.8263Z" fill="#6D9108"/>
<path d="M94.7991 76.5195H104.879V86.2261C104.506 82.4928 103.834 80.3275 102.639 79.1328C101.444 77.9382 98.5324 76.8929 94.7991 76.5195Z" fill="#3C3C3C" fill-opacity="0.2"/>
</svg>
