<svg width="144" height="144" viewBox="0 0 144 144" fill="none" xmlns="http://www.w3.org/2000/svg">
<path d="M117.334 22.6353L18.8908 60.2632C11.9491 62.9165 11.0324 72.3639 17.3346 76.3023L33.9183 86.6657L120.095 27.9164C123.035 25.9118 120.658 21.3647 117.334 22.6353Z" fill="#E6007A"/>
<path d="M54.2659 98.4056L118.138 25.222C120.936 22.0166 126.14 24.8156 125.008 28.9167L102.092 111.92C100.126 119.043 91.8358 122.24 85.5963 118.281L54.2659 98.4056Z" fill="#E6007A"/>
<path d="M47.5529 111.714L55.0665 98.6121L65.4658 105.21L51.9849 115.584C49.3853 117.584 45.9211 114.559 47.5529 111.714Z" fill="#8D0C50"/>
<path d="M34.1062 86.4377L124.452 20.2131L54.8382 98.905L51.8897 109.958C50.3029 115.906 41.8566 115.892 40.29 109.938L34.1062 86.4377Z" fill="#BA0665"/>
</svg>
