<svg width="144" height="144" viewBox="0 0 144 144" fill="none" xmlns="http://www.w3.org/2000/svg">
<path d="M22.0339 87.863L85.6865 105.443V105.443C88.9224 114.972 81.267 124.672 71.2473 123.739L18.7101 118.848L22.0339 87.863Z" fill="#325EFF"/>
<path d="M68.2827 108.511L122.218 97.6937L123.205 97.4958C126.943 96.7461 130.092 99.3527 130.092 103.196V103.196C130.092 106.597 127.604 109.808 124.312 110.655L74.8283 123.39L68.2827 108.511Z" fill="#325EFF"/>
<rect x="20.0432" y="94.6467" width="65.6535" height="14.2828" rx="7.14139" transform="rotate(-13.8068 20.0432 94.6467)" fill="#325EFF"/>
<path d="M15.9114 87.2264C16.3358 85.6455 17.7936 84.6418 19.4304 84.6418H31.4629C34.1443 84.6418 36.1393 87.2497 35.6527 89.8865C34.9703 93.5845 34.2487 99.0095 34.2487 105.417C34.2487 111.824 34.9703 117.249 35.6527 120.947C36.1393 123.584 34.1443 126.192 31.4629 126.192H19.4304C17.7936 126.192 16.3358 125.188 15.9114 123.607C15.0468 120.386 13.7983 114.211 13.7983 105.417C13.7983 96.6221 15.0468 90.4479 15.9114 87.2264Z" fill="#E6007A"/>
<path d="M47.2329 121.827L35.547 120.529C35.547 120.529 34.2485 114.686 34.2485 105.921C34.2485 97.1568 35.547 90.9892 35.547 90.9892L46.2591 88.3923C46.2591 88.3923 42.3638 95.5337 42.3638 105.272C42.3638 115.01 47.2329 121.827 47.2329 121.827Z" fill="#3C3C3C" fill-opacity="0.2"/>
<path d="M52.1022 103.324L62.2836 99.1042L76.4479 103L52.1022 103.324Z" fill="#3C3C3C" fill-opacity="0.2"/>
<path d="M111.636 20.7423C111.636 19.1442 110.341 17.8486 108.743 17.8486H105.144C99.4072 17.8486 94.7565 22.4993 94.7565 28.2361V28.2361H105.636C108.95 28.2361 111.636 25.5498 111.636 22.2361V20.7423Z" fill="#94C804"/>
<path d="M75.9294 20.7423C75.9294 19.1442 77.2249 17.8486 78.8231 17.8486H82.4216C88.1584 17.8486 92.8091 22.4993 92.8091 28.2361V28.2361H81.9294C78.6157 28.2361 75.9294 25.5498 75.9294 22.2361V20.7423Z" fill="#94C804"/>
<path d="M99.9928 22.8555C98.5528 23.1673 97.4559 23.4945 95.7913 24.6615L95.406 27.7474C96.6965 26.455 97.7367 25.723 99.3737 25.0789C101.144 24.3822 102.493 24.2566 105.061 24.0066C103.399 23.1355 101.433 22.5437 99.9928 22.8555Z" fill="#499526" fill-opacity="0.6"/>
<path d="M87.3275 22.9898C88.7259 23.2581 89.7927 23.552 91.4234 24.6668L91.8504 27.7341C90.5794 26.483 89.5603 25.7836 87.9655 25.1896C86.2405 24.5472 84.9335 24.4619 82.4451 24.2888C84.0374 23.3704 85.9291 22.7216 87.3275 22.9898Z" fill="#499526" fill-opacity="0.6"/>
<path d="M89.9892 24.5418C89.9892 22.5631 91.5933 20.959 93.572 20.959V20.959C95.5508 20.959 97.1548 22.5631 97.1548 24.5418V25.0536C97.1548 26.7497 95.7799 28.1246 94.0839 28.1246H93.0602C91.3641 28.1246 89.9892 26.7497 89.9892 25.0536V24.5418Z" fill="#6D9108"/>
<path d="M70.8955 39.7861H115.372V65.8488C115.372 68.0579 113.581 69.8488 111.372 69.8488H74.8955C72.6864 69.8488 70.8955 68.0579 70.8955 65.8488V39.7861Z" fill="#04B99B"/>
<rect x="65.5419" y="27.8435" width="55.1835" height="11.9427" rx="4" fill="#088671"/>
<rect x="88.1922" y="39.7861" width="10.2954" height="30.0627" fill="#BBFF00"/>
<rect x="88.1922" y="27.8435" width="10.2954" height="11.9427" fill="#6D9108"/>
<rect x="70.8955" y="39.7861" width="44.4763" height="7.00089" fill="#3C3C3C" fill-opacity="0.2"/>
<path d="M115.372 46.7874L115.372 65.8491C115.372 68.0583 113.581 69.8491 111.372 69.8491L111.254 69.8491L111.254 46.7874L115.372 46.7874Z" fill="#3C3C3C" fill-opacity="0.2"/>
<path d="M105.694 46.7874H111.253V52.141C111.048 50.0819 110.677 48.8876 110.018 48.2287C109.359 47.5698 107.753 46.9933 105.694 46.7874Z" fill="#0FA088"/>
</svg>
